<?xml version="1.0" encoding="utf-8"?>
<!-- Generator: Adobe Illustrator 19.2.1, SVG Export Plug-In . SVG Version: 6.00 Build 0)  -->
<svg version="1.1" id="layer" xmlns="http://www.w3.org/2000/svg" xmlns:xlink="http://www.w3.org/1999/xlink" x="0px" y="0px"
	 viewBox="0 0 652 652" style="enable-background:new 0 0 652 652;" xml:space="preserve">
<style type="text/css">
	.st0{fill:#FFFFFF;}
</style>
<g>
	<polygon points="216.9,572 716.9,572 716.9,72 216.9,72 	"/>
	<polygon points="116.9,572 195.5,572 195.5,72 116.9,72 	"/>
	<polygon points="24.1,572 59.8,572 59.8,72 24.1,72 	"/>
	<polygon points="-75.9,572 -54.5,572 -54.5,72 -75.9,72 	"/>
	<g transform="translate(51.000000, 12.000000)">
		<g>
			<path class="st0" d="M283.1,150.3h9.1v54.4c0,6.1-0.3,12.9-4.7,17.7c-2.1,2.3-4.8,3.7-7.9,4.3c-0.2-0.1-8.4-8.4-8.4-8.4
				c2.5,0,5,0.2,7.4-0.8c1.6-0.6,2.8-1.7,3.5-3.3c0.8-1.6,1.1-5.2,1.1-10.5V150.3z"/>
			<path class="st0" d="M353.2,158c-7.3,0-13.2,2.3-17.9,6.8c-4.7,4.6-7,10.4-7,17.4c0,6.9,2.4,12.6,7,17.1
				c4.7,4.5,10.6,6.8,17.6,6.8c7.1,0,13-2.3,17.7-7c4.7-4.6,7.1-10.4,7.1-17.3c0-6.7-2.4-12.4-7.1-17C366,160.3,360.1,158,353.2,158
				 M352.9,149.4c9.8,0,18,3.1,24.5,9.3s9.8,14,9.8,23.4c0,9.4-3.3,17.1-9.9,23.3c-6.6,6.1-14.9,9.2-24.9,9.2
				c-9.6,0-17.6-3.1-23.9-9.2c-6.4-6.1-9.6-13.8-9.6-23.1c0-9.5,3.2-17.3,9.6-23.6S343.1,149.4,352.9,149.4"/>
			<polygon class="st0" points="460.1,150.3 469.2,150.3 469.2,213.8 460.1,213.8 460.1,186.2 422.9,186.2 422.9,213.8 413.8,213.8 
				413.8,150.3 422.9,150.3 422.9,178 460.1,178 			"/>
			<polygon class="st0" points="553.7,150.3 562.3,150.3 562.3,213.8 554.5,213.8 510.1,164.9 510.1,213.8 501.6,213.8 501.6,150.3 
				508.9,150.3 553.7,199.6 			"/>
			<polygon class="st0" points="245.8,286.6 245.8,350.5 285,350.5 285,342.3 255,342.3 255,286.6 			"/>
			<polygon class="st0" points="315.6,286.6 315.6,350.5 356.8,350.5 356.8,342.3 324.8,342.3 324.8,322.4 355.1,322.4 355.1,314.1 
				324.8,314.1 324.8,294.8 356,294.8 356,286.6 			"/>
			<polygon class="st0" points="471.5,286.6 454.1,330.6 436.3,286.6 427.6,286.6 409.9,330.6 392.2,286.6 383.1,286.6 408.9,351.1 
				410.7,351.1 431.9,298.8 452.9,351.1 454.7,351.1 480.6,286.6 			"/>
			<polygon class="st0" points="508.3,350.5 517.4,350.5 517.4,286.6 508.3,286.6 			"/>
			<path class="st0" d="M569.1,323.9l-7-4.2c-4.4-2.7-7.1-5.3-9.1-7.8c-2.1-2.6-3.1-5.7-3.1-9.1c0-5,1.7-9.1,5.2-12.3
				s8.1-4.7,13.7-4.7c5.9,0,10.2,1.5,14.7,4.5v10.4c-4.6-4.4-9.6-6.6-14.9-6.6c-3,0-5.4,0.7-7.4,2.1c-1.9,1.4-2.9,3.2-2.9,5.4
				c0,1.9,0.5,3.5,1.9,5.2c1.4,1.7,3.9,3.6,7.1,5.5l7.2,4.1c7.8,4.7,11.4,10.6,11.4,17.8c0,5.1-1.8,9.4-5.2,12.5
				c-3.4,3.2-7.8,4.9-13.3,4.8c-6.3-0.1-11.9-1.9-17.2-5.9v-11.6c4.9,6.3,10.7,9.3,17.1,9.3c2.9,0,5.3-0.7,7.2-2.3
				c1.9-1.6,2.9-3.6,2.9-6C577.6,331,574.7,327.4,569.1,323.9"/>
			<path class="st0" d="M252.3,428.4c0,0.8,0.3,1.6,0.9,2.6s1.3,1.9,2.1,2.6c1.2-0.7,2.2-1.5,2.9-2.3c0.7-0.8,1.1-1.7,1.1-2.7
				c0-0.9-0.3-1.7-1-2.4c-0.7-0.6-1.5-0.9-2.6-0.9c-0.9,0-1.7,0.3-2.4,0.8C252.6,426.8,252.3,427.5,252.3,428.4 M248.2,446.3
				c0,1.1,0.4,2,1.3,2.8c0.9,0.8,1.9,1.1,3,1.1c2,0,4.1-1,6.3-2.9l-5.9-6.7c-1.5,0.9-2.6,1.8-3.4,2.7
				C248.6,444.3,248.2,445.2,248.2,446.3 M255.8,420.4c2.6,0,4.9,0.7,6.6,2.2c1.8,1.5,2.6,3.4,2.6,5.7c0,1.7-0.5,3.2-1.6,4.7
				c-1,1.5-2.7,2.9-4.8,4.3l4.8,5.5c1.4-1.4,2.7-3.2,3.9-5.5h6.3c-1.6,4-3.8,7.2-6.3,9.8l7,7.9h-8.6l-3.2-3.6
				c-1.8,1.5-3.4,2.5-5.1,3.1c-1.6,0.6-3.6,1-5.8,1c-2.8,0-5.1-0.8-7.1-2.5c-1.9-1.7-2.9-3.8-2.9-6.2c0-2,0.7-3.9,2.1-5.5
				c1.4-1.6,3.3-3.1,5.9-4.5c-1.2-1.5-2.1-2.9-2.6-4.1c-0.6-1.2-0.8-2.5-0.8-3.8c0-2.5,0.9-4.6,2.8-6.2
				C250.6,421.2,253,420.4,255.8,420.4"/>
			<path class="st0" d="M309.2,435.2c1.8,0,3.2-0.4,4.2-1.2c1-0.8,1.5-2,1.5-3.6c0-3.2-2-4.8-6.1-4.8h-4.6v9.6H309.2z M310.9,420.4
				c3.2,0,5.9,0.9,7.9,2.8c2,1.9,3,4.3,3,7.2c0,3-1,5.4-3.1,7.3c-2,1.9-4.8,2.8-8.1,2.8h-6.4V455h-6.7v-34.6H310.9z"/>
			<path class="st0" d="M338.7,441.5h11.2l-5.8-13.7L338.7,441.5z M347.5,420.4l15.3,34.6h-7.1l-3.6-8.4h-15.4l-3.3,8.4h-7
				l14.3-34.6H347.5z"/>
			<path class="st0" d="M382.6,435.1c1.8,0,3.1-0.4,4.1-1.3c1-0.9,1.5-2.1,1.5-3.6c0-1.6-0.5-2.8-1.5-3.6c-1-0.8-2.4-1.2-4.2-1.2
				h-4.2v9.6H382.6z M384.1,420.4c3.3,0,5.9,0.9,8,2.7c2,1.8,3.1,4.1,3.1,7c0,2-0.5,3.7-1.5,5.1c-1,1.5-2.5,2.6-4.5,3.4
				c1.1,0.6,2.1,1.4,3,2.4c0.9,1,1.9,2.8,3.2,5.2c2.1,4.2,3.7,7.1,4.7,8.7h-7.5c-0.5-0.8-1.2-2-2.1-3.6c-1.9-3.7-3.3-6.2-4.2-7.4
				c-0.9-1.3-1.7-2.2-2.6-2.7c-0.8-0.5-1.8-0.8-2.9-0.8h-2.4V455h-6.7v-34.6H384.1z"/>
			<polygon class="st0" points="436.5,420.4 436.5,425.6 424.2,425.6 424.2,455 417.5,455 417.5,425.6 405.2,425.6 405.2,420.4 			
				"/>
			<polygon class="st0" points="453.3,420.4 473.9,444.5 473.9,420.4 480.4,420.4 480.4,455 474.7,455 454,430.4 454,455 447.4,455 
				447.4,420.4 			"/>
			<polygon class="st0" points="516.8,420.4 516.8,425.6 501.1,425.6 501.1,434.7 516.1,434.7 516.1,439.9 501.1,439.9 501.1,449.8 
				517.1,449.8 517.1,455 494.4,455 494.4,420.4 			"/>
			<path class="st0" d="M541,435.1c1.7,0,3.1-0.4,4.1-1.3c1-0.9,1.5-2.1,1.5-3.6c0-1.6-0.5-2.8-1.5-3.6c-1-0.8-2.4-1.2-4.2-1.2h-4.2
				v9.6H541z M542.5,420.4c3.3,0,5.9,0.9,8,2.7c2,1.8,3.1,4.1,3.1,7c0,2-0.5,3.7-1.5,5.1c-1,1.5-2.5,2.6-4.5,3.4
				c1.1,0.6,2.1,1.4,2.9,2.4c0.9,1,1.9,2.8,3.2,5.2c2.1,4.2,3.7,7.1,4.7,8.7h-7.5c-0.5-0.8-1.2-2-2.1-3.6c-1.9-3.7-3.3-6.2-4.2-7.4
				c-0.9-1.3-1.8-2.2-2.6-2.7c-0.8-0.5-1.8-0.8-2.8-0.8h-2.4V455H530v-34.6H542.5z"/>
			<path class="st0" d="M578.4,419.9c3.4,0,6.6,0.8,9.7,2.5v5.9c-3.6-2.2-6.8-3.3-9.5-3.3c-1.7,0-3,0.3-3.9,1
				c-1,0.7-1.4,1.5-1.4,2.6c0,1.3,0.9,2.5,2.6,3.6c0.5,0.3,2.4,1.3,5.7,2.8c2.8,1.3,4.9,2.8,6.2,4.5c1.3,1.6,1.9,3.6,1.9,5.9
				c0,3-1.1,5.4-3.2,7.2c-2.1,1.8-4.9,2.7-8.3,2.7c-2.2,0-4.1-0.2-5.7-0.7c-1.6-0.5-3.4-1.3-5.4-2.5v-6.6c3.7,3.1,7.2,4.6,10.5,4.6
				c1.6,0,3-0.4,4-1.1c1-0.7,1.5-1.7,1.5-2.8c0-1.6-0.9-2.9-2.6-3.9c-1.5-0.8-3.3-1.7-5.6-2.9c-2.7-1.2-4.8-2.7-6.1-4.3
				c-1.3-1.6-2-3.6-2-5.7c0-2.9,1.1-5.2,3.2-7C572,420.8,574.9,419.9,578.4,419.9"/>
		</g>
	</g>
</g>
</svg>
