<svg xmlns="http://www.w3.org/2000/svg" xmlns:xlink="http://www.w3.org/1999/xlink" viewBox="0 0 66 97" alt="User Experience Designer Avatar"><defs><path id="a" d="M10.759 16.206c-7.565 0-9.107-4.361-9.797-11.397-.167-1.711.208-2.383.504-2.738C3.638-.528 15.108-.422 18.908 1.86c1.09.652 1.797 1.376.994 4.752-1.187 4.982-3.116 9.593-9.143 9.593zm26.22 0c-6.027 0-7.957-4.61-9.142-9.593-.804-3.376-.096-4.1.995-4.753 3.813-2.292 15.278-2.379 17.442.211.293.357.669 1.029.502 2.739-.692 7.035-2.235 11.396-9.797 11.396z"></path><style>@-webkit-keyframes shine{30%{-webkit-transform:translateX(200%);transform:translateX(200%)}31%{opacity:0;-webkit-transform:translateX(0);transform:translateX(0)}32%{opacity:1}}@keyframes shine{30%{-webkit-transform:translateX(200%);transform:translateX(200%)}31%{opacity:0;-webkit-transform:translateX(0);transform:translateX(0)}32%{opacity:1}}@-webkit-keyframes anti-shine{30%{-webkit-transform:translateX(-200%);transform:translateX(-200%)}31%{-webkit-transform:translateX(0);transform:translateX(0)}}@keyframes anti-shine{30%{-webkit-transform:translateX(-200%);transform:translateX(-200%)}31%{-webkit-transform:translateX(0);transform:translateX(0)}}@-webkit-keyframes glare{18%{fill:transparent;-webkit-transform:scale(.75);transform:scale(.75)}22%{fill:#fff}25%{fill:transparent;-webkit-transform:rotate(30deg) scale(1.75);transform:rotate(30deg) scale(1.75)}}@keyframes glare{18%{fill:transparent;-webkit-transform:scale(.75);transform:scale(.75)}22%{fill:#fff}25%{fill:transparent;-webkit-transform:rotate(30deg) scale(1.75);transform:rotate(30deg) scale(1.75)}}.shine{-webkit-animation:shine 5s linear infinite;animation:shine 5s linear infinite}#a{-webkit-animation:anti-shine 5s linear infinite;animation:anti-shine 5s linear infinite}.glare{-webkit-animation:glare 5s ease-out infinite;animation:glare 5s ease-out infinite;-webkit-transform-origin:85% 45%;-ms-transform-origin:85% 45%;transform-origin:85% 45%}</style><linearGradient id="shiny" x1="40%" x2="50%" y1="60%" y2="40%"><stop offset="30%" stop-color="#fff" stop-opacity="0"></stop><stop offset="100%" stop-color="#fff"></stop></linearGradient></defs><g fill="none" fill-rule="evenodd"><path stroke="#222" stroke-width=".4" fill-rule="nonzero" d="M64.577 21.902c-.827-1.852-3.15-3.192-4.938-2.234 1.35-3.99.756-7.103-1.954-10.33-2.709-3.226-4.813-3.114-4.813-3.114 2.035 1.545 3.712 3.723 4.112 6.245-4.36-5.434-10.466-9.446-17.185-11.29-6.718-1.845-14.017-1.516-20.542.929a33.457 33.457 0 0 0-4.97 2.347c-3.675 2.118-6.945 4.92-9.643 8.192-1.141 1.384-2.964 3.305-3.395 5.05C.649 20.12-.106 31.89.012 34.567c.22 4.989 1.237 14.455 2.528 17.19-.192 2.69 1.017 3.735.474-.614.66-8.002.93-19.135 3.77-25.903.823-1.962 2.163-4.043 4.267-4.352 4.035-.593 7.356 1.417 11.157 2.897 5.968 2.323 12.696 3.22 18.798 1.277 3.078-.98 5.988-2.23 9.211-2.888-6.474 1.053-12.87-1.71-19.086-3.802-6.218-2.093-13.47-3.44-19.017.063 7.776-5.41 18.487-4.846 27.18-1.082 2.064.895 4.133 1.764 6.27 2.469 2.481.818 2.14.574 5.639 1.523-8.713-4.78-16.686-9.327-26.563-8.239 5.085-.784 10.302-1.301 15.353-.32 5.05.983 9.97 3.65 12.661 8.036.627 1.023 1.516 1.679 2.677 1.982.776.204 1.823-.011 1.823-.011-.722.83-.743 2.084-.39 3.125.352 1.041 1.017 1.943 1.577 2.888 4.02 6.784 2.498 15.26 3.152 23.167-.51 4.072.77 2.474.577-.216a2.32 2.32 0 0 0-.078-.461c1.724-4.276 2.987-12.012 3.79-23.209-.252-2.888-.653-4.95-1.205-6.185zM61.255 44.27s-2.257 11.253-4.322 19.041c-2.066 7.788-8.912 5.064-10.71 4.59-1.798-.474-5.914-4.59-8.82-5.539-1.959-.627-3.872 1.117-4.973 2.471-1.102-1.354-3.014-3.098-4.973-2.47-2.907.94-7.038 5.071-8.82 5.538-1.783.467-8.63 3.19-10.71-4.59-2.08-7.78-4.276-19.04-4.276-19.04s-.467.386-.467 3.52c0 3.135-1.69 6.7-1.216 7.924.474 1.224 1.124 2.532.466 3.748-.658 1.216.283 4.315.283 4.315s-.474 7.413.467 9.103l.467-1.69s.566.505.765 2.663c.262 2.618.323 5.252.183 7.88.31-1.044.532-2.11.666-3.19 0 0 .466 4.188 2.532 6.254v-2.349s2.517 4.181 6.296 7.287l-.475-1.874s4.223 4.031 6.664 5.439l-.283-1.683 8.98 4.487-.657-1.782c1.372 1.505 2.747 2.256 4.126 2.254 1.378-.003 2.757-.76 4.136-2.27l-.658 1.798 9.004-4.472-.283 1.683c2.44-1.407 6.663-5.439 6.663-5.439l-.497 1.86c3.756-3.06 6.288-7.288 6.288-7.288v2.356c2.066-2.065 2.532-6.254 2.532-6.254a19.76 19.76 0 0 0 .666 3.19 51.553 51.553 0 0 1 .183-7.88c.184-2.157.765-2.663.765-2.663l.467 1.69c.941-1.69.467-9.103.467-9.103s.94-3.06.283-4.314c-.658-1.255 0-2.532.466-3.749.467-1.216-.65-5.821-1.124-6.946-.474-1.125-.55-4.506-.55-4.506zM41.082 78.412v1.125l-2.157.765v1.407H36.11l-1.967 1.974-1.032-1.599-.658.36-.658-.36-1.033 1.599-1.966-1.974h-2.815v-1.423l-2.157-.765v-1.109l-3.94-1.033a17.81 17.81 0 0 0 6.12-6.28l.658.765 1.874-1.53.857 1.14 1.53-1.125 1.025.65.566-.52.566.52 1.025-.65 1.53 1.125.842-1.125 1.874 1.53.658-.765a27.28 27.28 0 0 0 6.12 6.28l-4.047 1.018z"></path><path fill="#222" d="M46.124 39.167c4.517 0 9.554.886 13.876 2.012v4.097c-1.943.587-2.447 1.437-2.757 3.422-.873 5.6-2.878 11.094-11.616 11.094-6.976 0-9.286-5.205-10.83-9.992-.794-2.457-3.823-2.395-4.602.034-1.538 4.78-3.864 9.958-10.822 9.958-8.738 0-10.743-5.494-11.616-11.092-.31-1.985-.814-2.837-2.757-3.422v-4.1c4.322-1.125 9.36-2.011 13.876-2.011 2.606 0 5.447.295 7.776 1.125 5.296 1.92 6.46 1.897 11.692 0 2.333-.83 5.172-1.125 7.78-1.125zM19.759 57.206c6.027 0 7.956-4.61 9.143-9.593.803-3.376.097-4.1-.994-4.753-3.8-2.282-15.27-2.388-17.442.21-.296.356-.671 1.028-.504 2.74.69 7.035 2.232 11.396 9.797 11.396zm26.22 0c7.562 0 9.105-4.361 9.797-11.396.167-1.71-.209-2.382-.502-2.739-2.164-2.59-13.629-2.503-17.442-.21-1.091.652-1.8 1.376-.995 4.752 1.185 4.982 3.115 9.593 9.142 9.593zm-1.615-13.885c3.527-.536 7.604-.068 8.688 1.23.238.285.538.821.405 2.192a35.197 35.197 0 0 1-.256 2.062c-.942-3.407-3.342-5.232-8.837-5.484zm-32.185 5.484a35.197 35.197 0 0 1-.257-2.062c-.135-1.368.167-1.907.406-2.191 1.084-1.3 5.16-1.767 8.688-1.23-5.496.251-7.895 2.076-8.837 5.483z"></path><g transform="translate(9 41)"><mask id="b" fill="#fff"><use xlink:href="#a"></use></mask><path fill="url(#shiny)" d="M-36-9h11l60 50H24z" class="shine" mask="url(#b)"></path></g></g><g fill="rgba(255,255,255,0)" class="glare"><path d="M50 42.5c4.09 0 5.154-1.307 5.114-7.5 0 6.087 1.06 7.5 5.113 7.5-4.09 0-5.154 1.307-5.113 7.5 0-6.087-1.061-7.5-5.114-7.5"></path></g></svg>
