<svg xmlns="http://www.w3.org/2000/svg" xmlns:xlink="http://www.w3.org/1999/xlink" viewBox="0 0 1694.56 1400"><defs><path id="L" d="M30-248c118-7 216 8 213 122C240-48 200 0 122 0H30zM63-27c89 8 146-16 146-99s-60-101-146-95z" fill="#036"/><path id="a" d="M141-36C126-15 110 5 73 4 37 3 15-17 15-53c-1-64 63-63 125-63 3-35-9-54-41-54-24 1-41 7-42 31l-33-3c5-37 33-52 76-52 45 0 72 20 72 64v82c-1 20 7 32 28 27v20c-31 9-61-2-59-35zM48-53c0 20 12 33 32 33 41-3 63-29 60-74-43 2-92-5-92 41" fill="#036"/><path id="M" d="M135-143c-3-34-86-38-87 0 15 53 115 12 119 90S17 21 10-45l28-5c4 36 97 45 98 0-10-56-113-15-118-90-4-57 82-63 122-42 12 7 21 19 24 35" fill="#036"/><path id="N" d="M115-194c53 0 69 39 70 98 0 66-23 100-70 100C84 3 66-7 56-30L54 0H23l1-261h32v101c10-23 28-34 59-34zm-8 174c40 0 45-34 45-75 0-40-5-75-45-74-42 0-51 32-51 76 0 43 10 73 51 73" fill="#036"/><path id="l" d="M100-194c62-1 85 37 85 99 1 63-27 99-86 99S16-35 15-95c0-66 28-99 85-99zM99-20c44 1 53-31 53-75 0-43-8-75-51-75s-53 32-53 75 10 74 51 75" fill="#036"/><path id="O" d="M114-163C36-179 61-72 57 0H25l-1-190h30c1 12-1 29 2 39 6-27 23-49 58-41z" fill="#036"/><path id="P" d="M85-194c31 0 48 13 60 33l-1-100h32l1 261h-30c-2-10 0-23-3-31C134-8 116 4 85 4 32 4 16-35 15-94c0-66 23-100 70-100zm9 24c-40 0-46 34-46 75 0 40 6 74 45 74 42 0 51-32 51-76 0-42-9-74-50-73" fill="#036"/><path id="Q" d="M240 0l2-218c-23 76-54 145-80 218h-23L58-218 59 0H30v-248h44l77 211c21-75 51-140 76-211h43V0z" fill="#036"/><path id="o" d="M100-194c63 0 86 42 84 106H49c0 40 14 67 53 68 26 1 43-12 49-29l28 8c-11 28-37 45-77 45C44 4 14-33 15-96c1-61 26-98 85-98zm52 81c6-60-76-77-97-28-3 7-6 17-6 28z" fill="#036"/><path id="R" d="M24 0v-261h32V0z" fill="#036"/><path id="S" d="M143 4C61 4 22-44 18-125c-5-107 100-154 193-111 17 8 29 25 37 43l-32 9c-13-25-37-40-76-40-61 0-88 39-88 99 0 61 29 100 91 101 35 0 62-11 79-27v-45h-74v-28h105v86C228-13 192 4 143 4" fill="#036"/><path id="T" d="M84 4C-5 8 30-112 23-190h32v120c0 31 7 50 39 49 72-2 45-101 50-169h31l1 190h-30c-1-10 1-25-2-33-11 22-28 36-60 37" fill="#036"/><path id="U" d="M115-194c55 1 70 41 70 98S169 2 115 4C84 4 66-9 55-30l1 105H24l-1-265h31l2 30c10-21 28-34 59-34zm-8 174c40 0 45-34 45-75s-6-73-45-74c-42 0-51 32-51 76 0 43 10 73 51 73" fill="#036"/><path id="V" d="M179-190L93 31C79 59 56 82 12 73V49c39 6 53-20 64-50L1-190h34L92-34l54-156z" fill="#036"/><path id="b" d="M177-190C167-65 218 103 67 71c-23-6-38-20-44-43l32-5c15 47 100 32 89-28v-30C133-14 115 1 83 1 29 1 15-40 15-95c0-56 16-97 71-98 29-1 48 16 59 35 1-10 0-23 2-32zM94-22c36 0 50-32 50-73 0-42-14-75-50-75-39 0-46 34-46 75s6 73 46 73" fill="#036"/><g id="W"><path d="M127-220V0H93v-220H8v-28h204v28z" fill="#036" transform="scale(.05)"/><use transform="translate(8.95) scale(.05)" xlink:href="#a"/><use transform="translate(18.95) scale(.05)" xlink:href="#b"/></g><path id="c" d="M185-189c-5-48-123-54-124 2 14 75 158 14 163 119 3 78-121 87-175 55-17-10-28-26-33-46l33-7c5 56 141 63 141-1 0-78-155-14-162-118-5-82 145-84 179-34 5 7 8 16 11 25"/><path id="d" d="M100-194c63 0 86 42 84 106H49c0 40 14 67 53 68 26 1 43-12 49-29l28 8c-11 28-37 45-77 45C44 4 14-33 15-96c1-61 26-98 85-98zm52 81c6-60-76-77-97-28-3 7-6 17-6 28z"/><path id="e" d="M24 0v-261h32V0z"/><path id="f" d="M96-169c-40 0-48 33-48 73s9 75 48 75c24 0 41-14 43-38l32 2c-6 37-31 61-74 61-59 0-76-41-82-99-10-93 101-131 147-64 4 7 5 14 7 22l-32 3c-4-21-16-35-41-35"/><path id="g" d="M59-47c-2 24 18 29 38 22v24C64 9 27 4 27-40v-127H5v-23h24l9-43h21v43h35v23H59z"/><g id="X"><use transform="scale(.05)" xlink:href="#c"/><use transform="translate(12) scale(.05)" xlink:href="#d"/><use transform="translate(22) scale(.05)" xlink:href="#e"/><use transform="translate(25.95) scale(.05)" xlink:href="#d"/><use transform="translate(35.95) scale(.05)" xlink:href="#f"/><use transform="translate(44.95) scale(.05)" xlink:href="#g"/></g><path id="h" d="M127-220V0H93v-220H8v-28h204v28z"/><path id="i" d="M141-36C126-15 110 5 73 4 37 3 15-17 15-53c-1-64 63-63 125-63 3-35-9-54-41-54-24 1-41 7-42 31l-33-3c5-37 33-52 76-52 45 0 72 20 72 64v82c-1 20 7 32 28 27v20c-31 9-61-2-59-35zM48-53c0 20 12 33 32 33 41-3 63-29 60-74-43 2-92-5-92 41"/><path id="j" d="M177-190C167-65 218 103 67 71c-23-6-38-20-44-43l32-5c15 47 100 32 89-28v-30C133-14 115 1 83 1 29 1 15-40 15-95c0-56 16-97 71-98 29-1 48 16 59 35 1-10 0-23 2-32zM94-22c36 0 50-32 50-73 0-42-14-75-50-75-39 0-46 34-46 75s6 73 46 73"/><g id="Y"><use transform="scale(.05)" xlink:href="#h"/><use transform="translate(8.95) scale(.05)" xlink:href="#i"/><use transform="translate(18.95) scale(.05)" xlink:href="#j"/></g><path id="k" d="M212-179c-10-28-35-45-73-45-59 0-87 40-87 99 0 60 29 101 89 101 43 0 62-24 78-52l27 14C228-24 195 4 139 4 59 4 22-46 18-125c-6-104 99-153 187-111 19 9 31 26 39 46" fill="#036"/><path id="m" d="M117-194c89-4 53 116 60 194h-32v-121c0-31-8-49-39-48C34-167 62-67 57 0H25l-1-190h30c1 10-1 24 2 32 11-22 29-35 61-36" fill="#036"/><path id="n" d="M59-47c-2 24 18 29 38 22v24C64 9 27 4 27-40v-127H5v-23h24l9-43h21v43h35v23H59z" fill="#036"/><g id="Z"><use transform="scale(.05)" xlink:href="#k"/><use transform="translate(12.95) scale(.05)" xlink:href="#l"/><use transform="translate(22.95) scale(.05)" xlink:href="#m"/><use transform="translate(32.95) scale(.05)" xlink:href="#n"/><use transform="translate(37.95) scale(.05)" xlink:href="#o"/><use transform="translate(47.95) scale(.05)" xlink:href="#m"/><use transform="translate(57.95) scale(.05)" xlink:href="#n"/></g><path id="q" d="M100-194c62-1 85 37 85 99 1 63-27 99-86 99S16-35 15-95c0-66 28-99 85-99zM99-20c44 1 53-31 53-75 0-43-8-75-51-75s-53 32-53 75 10 74 51 75"/><path id="p" d="M212-179c-10-28-35-45-73-45-59 0-87 40-87 99 0 60 29 101 89 101 43 0 62-24 78-52l27 14C228-24 195 4 139 4 59 4 22-46 18-125c-6-104 99-153 187-111 19 9 31 26 39 46"/><path id="aa" d="M114-163C36-179 61-72 57 0H25l-1-190h30c1 12-1 29 2 39 6-27 23-49 58-41z"/><path id="t" d="M179-190L93 31C79 59 56 82 12 73V49c39 6 53-20 64-50L1-190h34L92-34l54-156z"/><path id="ab" d="M84 4C-5 8 30-112 23-190h32v120c0 31 7 50 39 49 72-2 45-101 50-169h31l1 190h-30c-1-10 1-25-2-33-11 22-28 36-60 37" fill="#004c99"/><path id="ac" d="M117-194c89-4 53 116 60 194h-32v-121c0-31-8-49-39-48C34-167 62-67 57 0H25l-1-190h30c1 10-1 24 2 32 11-22 29-35 61-36" fill="#004c99"/><path id="ad" d="M24-231v-30h32v30zM24 0v-190h32V0z" fill="#004c99"/><path id="ae" d="M100-194c63 0 86 42 84 106H49c0 40 14 67 53 68 26 1 43-12 49-29l28 8c-11 28-37 45-77 45C44 4 14-33 15-96c1-61 26-98 85-98zm52 81c6-60-76-77-97-28-3 7-6 17-6 28z" fill="#004c99"/><path id="af" d="M24-231v-30h32v30zM24 0v-190h32V0z"/><path id="ag" d="M100-194c62-1 85 37 85 99 1 63-27 99-86 99S16-35 15-95c0-66 28-99 85-99zM99-20c44 1 53-31 53-75 0-43-8-75-51-75s-53 32-53 75 10 74 51 75" fill="#004c99"/><path id="ah" d="M210-169c-67 3-38 105-44 169h-31v-121c0-29-5-50-35-48C34-165 62-65 56 0H25l-1-190h30c1 10-1 24 2 32 10-44 99-50 107 0 11-21 27-35 58-36 85-2 47 119 55 194h-31v-121c0-29-5-49-35-48" fill="#004c99"/><path id="ai" d="M59-47c-2 24 18 29 38 22v24C64 9 27 4 27-40v-127H5v-23h24l9-43h21v43h35v23H59z" fill="#004c99"/><path id="aj" d="M141-36C126-15 110 5 73 4 37 3 15-17 15-53c-1-64 63-63 125-63 3-35-9-54-41-54-24 1-41 7-42 31l-33-3c5-37 33-52 76-52 45 0 72 20 72 64v82c-1 20 7 32 28 27v20c-31 9-61-2-59-35zM48-53c0 20 12 33 32 33 41-3 63-29 60-74-43 2-92-5-92 41" fill="#004c99"/><path id="ak" d="M177-190C167-65 218 103 67 71c-23-6-38-20-44-43l32-5c15 47 100 32 89-28v-30C133-14 115 1 83 1 29 1 15-40 15-95c0-56 16-97 71-98 29-1 48 16 59 35 1-10 0-23 2-32zM94-22c36 0 50-32 50-73 0-42-14-75-50-75-39 0-46 34-46 75s6 73 46 73" fill="#004c99"/><path id="J" d="M30-248c118-7 216 8 213 122C240-48 200 0 122 0H30zM63-27c89 8 146-16 146-99s-60-101-146-95z"/><path id="K" d="M84 4C-5 8 30-112 23-190h32v120c0 31 7 50 39 49 72-2 45-101 50-169h31l1 190h-30c-1-10 1-25-2-33-11 22-28 36-60 37"/><path id="s" d="M210-169c-67 3-38 105-44 169h-31v-121c0-29-5-50-35-48C34-165 62-65 56 0H25l-1-190h30c1 10-1 24 2 32 10-44 99-50 107 0 11-21 27-35 58-36 85-2 47 119 55 194h-31v-121c0-29-5-49-35-48"/><path id="r" d="M117-194c89-4 53 116 60 194h-32v-121c0-31-8-49-39-48C34-167 62-67 57 0H25l-1-190h30c1 10-1 24 2 32 11-22 29-35 61-36"/><g id="al"><use transform="scale(.05)" xlink:href="#p"/><use transform="translate(12.95) scale(.05)" xlink:href="#q"/><use transform="translate(22.95) scale(.05)" xlink:href="#r"/><use transform="translate(32.95) scale(.05)" xlink:href="#g"/><use transform="translate(37.95) scale(.05)" xlink:href="#d"/><use transform="translate(47.95) scale(.05)" xlink:href="#r"/><use transform="translate(57.95) scale(.05)" xlink:href="#g"/><path d="M135-143c-3-34-86-38-87 0 15 53 115 12 119 90S17 21 10-45l28-5c4 36 97 45 98 0-10-56-113-15-118-90-4-57 82-63 122-42 12 7 21 19 24 35" transform="translate(62.95) scale(.05)"/></g><g id="am"><use transform="scale(.05)" xlink:href="#s"/><use transform="translate(14.95) scale(.05)" xlink:href="#i"/><use transform="translate(24.95) scale(.05)" xlink:href="#t"/></g><g id="an"><path d="M115-194c53 0 69 39 70 98 0 66-23 100-70 100C84 3 66-7 56-30L54 0H23l1-261h32v101c10-23 28-34 59-34zm-8 174c40 0 45-34 45-75 0-40-5-75-45-74-42 0-51 32-51 76 0 43 10 73 51 73" transform="scale(.05)"/><use transform="translate(10) scale(.05)" xlink:href="#d"/></g><path id="u" d="M140-251c81 0 123 46 123 126C263-46 219 4 140 4 59 4 17-45 17-125s42-126 123-126zm0 227c63 0 89-41 89-101s-29-99-89-99c-61 0-89 39-89 99S79-25 140-24" fill="#fff"/><path id="v" d="M115-194c53 0 69 39 70 98 0 66-23 100-70 100C84 3 66-7 56-30L54 0H23l1-261h32v101c10-23 28-34 59-34zm-8 174c40 0 45-34 45-75 0-40-5-75-45-74-42 0-51 32-51 76 0 43 10 73 51 73" fill="#fff"/><path id="w" d="M24-231v-30h32v30zM-9 49c24 4 33-6 33-30v-209h32V24c2 40-23 58-65 49z" fill="#fff"/><path id="x" d="M100-194c63 0 86 42 84 106H49c0 40 14 67 53 68 26 1 43-12 49-29l28 8c-11 28-37 45-77 45C44 4 14-33 15-96c1-61 26-98 85-98zm52 81c6-60-76-77-97-28-3 7-6 17-6 28z" fill="#fff"/><path id="y" d="M96-169c-40 0-48 33-48 73s9 75 48 75c24 0 41-14 43-38l32 2c-6 37-31 61-74 61-59 0-76-41-82-99-10-93 101-131 147-64 4 7 5 14 7 22l-32 3c-4-21-16-35-41-35" fill="#fff"/><path id="z" d="M59-47c-2 24 18 29 38 22v24C64 9 27 4 27-40v-127H5v-23h24l9-43h21v43h35v23H59z" fill="#fff"/><g id="ao"><use transform="scale(.05)" xlink:href="#u"/><use transform="translate(14) scale(.05)" xlink:href="#v"/><use transform="translate(24) scale(.05)" xlink:href="#w"/><use transform="translate(27.95) scale(.05)" xlink:href="#x"/><use transform="translate(37.95) scale(.05)" xlink:href="#y"/><use transform="translate(46.95) scale(.05)" xlink:href="#z"/></g><g id="ap"><use transform="scale(.05)" xlink:href="#u"/><use transform="translate(14) scale(.05)" xlink:href="#v"/><use transform="translate(24) scale(.05)" xlink:href="#w"/><use transform="translate(27.95) scale(.05)" xlink:href="#x"/><use transform="translate(37.95) scale(.05)" xlink:href="#y"/><use transform="translate(46.95) scale(.05)" xlink:href="#z"/></g><path id="A" d="M115-194c55 1 70 41 70 98S169 2 115 4C84 4 66-9 55-30l1 105H24l-1-265h31l2 30c10-21 28-34 59-34zm-8 174c40 0 45-34 45-75s-6-73-45-74c-42 0-51 32-51 76 0 43 10 73 51 73" fill="#fff"/><g id="aq"><path d="M127-220V0H93v-220H8v-28h204v28z" fill="#fff" transform="scale(.05)"/><path d="M179-190L93 31C79 59 56 82 12 73V49c39 6 53-20 64-50L1-190h34L92-34l54-156z" fill="#fff" transform="translate(9.95) scale(.05)"/><use transform="translate(18.95) scale(.05)" xlink:href="#A"/><use transform="translate(28.95) scale(.05)" xlink:href="#x"/></g><path id="B" d="M233-177c-1 41-23 64-60 70L243 0h-38l-65-103H63V0H30v-248c88 3 205-21 203 71zM63-129c60-2 137 13 137-47 0-61-80-42-137-45z" fill="#fff"/><path id="C" d="M24 0v-261h32V0z" fill="#fff"/><path id="D" d="M141-36C126-15 110 5 73 4 37 3 15-17 15-53c-1-64 63-63 125-63 3-35-9-54-41-54-24 1-41 7-42 31l-33-3c5-37 33-52 76-52 45 0 72 20 72 64v82c-1 20 7 32 28 27v20c-31 9-61-2-59-35zM48-53c0 20 12 33 32 33 41-3 63-29 60-74-43 2-92-5-92 41" fill="#fff"/><path id="E" d="M24-231v-30h32v30zM24 0v-190h32V0z" fill="#fff"/><path id="F" d="M100-194c62-1 85 37 85 99 1 63-27 99-86 99S16-35 15-95c0-66 28-99 85-99zM99-20c44 1 53-31 53-75 0-43-8-75-51-75s-53 32-53 75 10 74 51 75" fill="#fff"/><path id="G" d="M117-194c89-4 53 116 60 194h-32v-121c0-31-8-49-39-48C34-167 62-67 57 0H25l-1-190h30c1 10-1 24 2 32 11-22 29-35 61-36" fill="#fff"/><path id="H" d="M135-143c-3-34-86-38-87 0 15 53 115 12 119 90S17 21 10-45l28-5c4 36 97 45 98 0-10-56-113-15-118-90-4-57 82-63 122-42 12 7 21 19 24 35" fill="#fff"/><path id="I" d="M106-169C34-169 62-67 57 0H25v-261h32l-1 103c12-21 28-36 61-36 89 0 53 116 60 194h-32v-121c2-32-8-49-39-48" fill="#fff"/><g id="ar"><use transform="scale(.05)" xlink:href="#B"/><use transform="translate(12.95) scale(.05)" xlink:href="#x"/><use transform="translate(22.95) scale(.05)" xlink:href="#C"/><use transform="translate(26.9) scale(.05)" xlink:href="#D"/><use transform="translate(36.9) scale(.05)" xlink:href="#z"/><use transform="translate(41.9) scale(.05)" xlink:href="#E"/><use transform="translate(45.85) scale(.05)" xlink:href="#F"/><use transform="translate(55.85) scale(.05)" xlink:href="#G"/><use transform="translate(65.85) scale(.05)" xlink:href="#H"/><use transform="translate(74.85) scale(.05)" xlink:href="#I"/><use transform="translate(84.85) scale(.05)" xlink:href="#E"/><use transform="translate(88.8) scale(.05)" xlink:href="#A"/></g><g id="as"><use transform="scale(.05)" xlink:href="#B"/><use transform="translate(12.95) scale(.05)" xlink:href="#x"/><use transform="translate(22.95) scale(.05)" xlink:href="#C"/><use transform="translate(26.9) scale(.05)" xlink:href="#D"/><use transform="translate(36.9) scale(.05)" xlink:href="#z"/><use transform="translate(41.9) scale(.05)" xlink:href="#E"/><use transform="translate(45.85) scale(.05)" xlink:href="#F"/><use transform="translate(55.85) scale(.05)" xlink:href="#G"/><use transform="translate(65.85) scale(.05)" xlink:href="#H"/><use transform="translate(74.85) scale(.05)" xlink:href="#I"/><use transform="translate(84.85) scale(.05)" xlink:href="#E"/><use transform="translate(88.8) scale(.05)" xlink:href="#A"/></g><g id="at"><use transform="scale(.05)" xlink:href="#J"/><use transform="translate(12.95) scale(.05)" xlink:href="#q"/><use transform="translate(22.95) scale(.05)" xlink:href="#f"/><use transform="translate(31.95) scale(.05)" xlink:href="#K"/><use transform="translate(41.95) scale(.05)" xlink:href="#s"/><use transform="translate(56.9) scale(.05)" xlink:href="#d"/><use transform="translate(66.9) scale(.05)" xlink:href="#r"/><use transform="translate(76.9) scale(.05)" xlink:href="#g"/></g><g id="au"><use transform="scale(.05)" xlink:href="#J"/><use transform="translate(12.95) scale(.05)" xlink:href="#q"/><use transform="translate(22.95) scale(.05)" xlink:href="#f"/><use transform="translate(31.95) scale(.05)" xlink:href="#K"/><use transform="translate(41.95) scale(.05)" xlink:href="#s"/><use transform="translate(56.9) scale(.05)" xlink:href="#d"/><use transform="translate(66.9) scale(.05)" xlink:href="#r"/><use transform="translate(76.9) scale(.05)" xlink:href="#g"/></g><g id="av"><use transform="scale(.05)" xlink:href="#h"/><use transform="translate(9.95) scale(.05)" xlink:href="#t"/><path d="M115-194c55 1 70 41 70 98S169 2 115 4C84 4 66-9 55-30l1 105H24l-1-265h31l2 30c10-21 28-34 59-34zm-8 174c40 0 45-34 45-75s-6-73-45-74c-42 0-51 32-51 76 0 43 10 73 51 73" transform="translate(18.95) scale(.05)"/><use transform="translate(28.95) scale(.05)" xlink:href="#d"/></g><path id="aw" d="M24-231v-30h32v30zM24 0v-190h32V0z" fill="#036"/></defs><g transform="translate(-69 -60)"><path d="M650.6 85c0-2.76 2.23-5 5-5h150c2.76 0 5 2.24 5 5v110c0 2.76-2.24 5-5 5h-150c-2.77 0-5-2.24-5-5z" fill="#cce5ff" stroke="#06c" stroke-width="2"/><g transform="translate(686.65 143.15)"><use transform="scale(.05)" xlink:href="#L"/><use transform="translate(12.95) scale(.05)" xlink:href="#a"/><use transform="translate(22.95) scale(.05)" xlink:href="#M"/><path d="M37.25-8.45c-3.6 0-2.2 5.1-2.45 8.45h-1.6v-13.05h1.6l-.05 5.15c.6-1.05 1.4-1.8 3.05-1.8 4.45 0 2.65 5.8 3 9.7h-1.6v-6.05c.1-1.6-.4-2.45-1.95-2.4" fill="#036"/><use transform="translate(41.95) scale(.05)" xlink:href="#N"/><use transform="translate(51.95) scale(.05)" xlink:href="#l"/><use transform="translate(61.95) scale(.05)" xlink:href="#a"/><use transform="translate(71.95) scale(.05)" xlink:href="#O"/><use transform="translate(77.9) scale(.05)" xlink:href="#P"/></g><path d="M190.6 405c0-2.76 2.23-5 5-5h150c2.76 0 5 2.24 5 5v110c0 2.76-2.24 5-5 5h-150c-2.77 0-5-2.24-5-5z" fill="#cce5ff" stroke="#06c" stroke-width="2"/><g transform="translate(204.176 451.9)"><use transform="scale(.05)" xlink:href="#Q"/><use transform="translate(14.95) scale(.05)" xlink:href="#l"/><use transform="translate(24.95) scale(.05)" xlink:href="#P"/><use transform="translate(34.95) scale(.05)" xlink:href="#o"/><use transform="translate(44.95) scale(.05)" xlink:href="#R"/><use transform="translate(48.9) scale(.05)" xlink:href="#M"/></g><g transform="translate(267.076 451.9)"><use transform="scale(.05)" xlink:href="#S"/><use transform="translate(14) scale(.05)" xlink:href="#O"/><use transform="translate(19.95) scale(.05)" xlink:href="#l"/><use transform="translate(29.95) scale(.05)" xlink:href="#T"/><use transform="translate(39.95) scale(.05)" xlink:href="#U"/><use transform="translate(49.95) scale(.05)" xlink:href="#o"/><use transform="translate(59.95) scale(.05)" xlink:href="#P"/></g><g transform="translate(244.126 473.5)"><use transform="scale(.05)" xlink:href="#N"/><use transform="translate(10) scale(.05)" xlink:href="#V"/></g><use transform="translate(268.126 473.5)" xlink:href="#W"/><path d="M652.3 264.83c-.72-2.67.94-4.83 3.7-4.83h150c2.76 0 4.42 2.16 3.7 4.83l-8.08 30.34c-.7 2.67-3.53 4.83-6.3 4.83H666.68c-2.76 0-5.58-2.16-6.3-4.83z" fill="#fff" stroke="#000" stroke-width="2"/><use transform="translate(706.03 284.4)" xlink:href="#X"/><path d="M730.6 201l.27 39.76" fill="none" stroke="#000" stroke-width="2"/><path d="M731.6 201h-2v-1h2z"/><path d="M730.98 255.76l-4.74-14.23 9.27-.06z" stroke="#000" stroke-width="2"/><path d="M436.33 281H275.76l-2.5.82-1.46 2-.2 1.26v95.68h-2v-95.84l.3-1.9 2.13-2.9 3.4-1.12h160.9zm221.78 0H465.3v-2h192.8z"/><path d="M661.1 281h-3v-2h3zM270.6 395.76l-4.64-14.26h9.27z"/><path d="M270.6 399l-6.02-18.5h12.03zm-3.26-16.5l3.26 10.03 3.25-10.03z"/><use transform="translate(436.33 283.6)" xlink:href="#Y"/><path d="M450.6 405c0-2.76 2.23-5 5-5h150c2.76 0 5 2.24 5 5v110c0 2.76-2.24 5-5 5h-150c-2.77 0-5-2.24-5-5z" fill="#cce5ff" stroke="#06c" stroke-width="2"/><g transform="translate(472.176 463.15)"><use transform="scale(.05)" xlink:href="#Q"/><use transform="translate(14.95) scale(.05)" xlink:href="#l"/><use transform="translate(24.95) scale(.05)" xlink:href="#P"/><use transform="translate(34.95) scale(.05)" xlink:href="#o"/><use transform="translate(44.95) scale(.05)" xlink:href="#R"/></g><use transform="translate(526.076 463.15)" xlink:href="#Z"/><path d="M575.85 350.5h-40.1l-2.5.82-1.45 2-.2 1.26v26.18h-2v-26.34l.3-1.9 2.13-2.9 3.4-1.12h40.42zm95.15-5.84l-1.1 3.4-2.92 2.13-1.9.3h-40.33v-2h40.17l1.26-.2 2-1.46.82-2.5V300h2zm-140.4 51.1l-4.64-14.26h9.27z"/><path d="M530.6 399l-6.02-18.5h12.03zm-3.26-16.5l3.26 10.03 3.25-10.03z"/><g transform="translate(575.848 353.1)"><path d="M12 0l.1-10.9C10.95-7.1 9.4-3.65 8.1 0H6.95L2.9-10.9 2.95 0H1.5v-12.4h2.2L7.55-1.85c1.05-3.75 2.55-7 3.8-10.55h2.15V0z"/><use transform="translate(14.95) scale(.05)" xlink:href="#q"/><path d="M29.2-9.7c1.55 0 2.4.65 3 1.65l-.05-5h1.6L33.8 0h-1.5c-.1-.5 0-1.15-.15-1.55C31.65-.4 30.75.2 29.2.2c-2.65 0-3.45-1.95-3.5-4.9 0-3.3 1.15-5 3.5-5zm.45 1.2c-2 0-2.3 1.7-2.3 3.75 0 2 .3 3.7 2.25 3.7 2.1 0 2.55-1.6 2.55-3.8 0-2.1-.45-3.7-2.5-3.65"/><use transform="translate(34.95) scale(.05)" xlink:href="#d"/><use transform="translate(44.95) scale(.05)" xlink:href="#e"/></g><path d="M331.88 564.83c-.7-2.67.95-4.83 3.72-4.83h110c2.76 0 4.42 2.16 3.7 4.83l-8.08 30.34c-.7 2.67-3.53 4.83-6.3 4.83h-88.66c-2.76 0-5.57-2.16-6.3-4.83z" fill="#fff" stroke="#000" stroke-width="2"/><use transform="translate(365.626 584.4)" xlink:href="#X"/><path d="M270.6 521v54c0 2.76 2.23 5 5 5h41.06" fill="none" stroke="#000" stroke-width="2"/><path d="M271.6 521h-2v-1h2z"/><path d="M331.66 580l-14.27 4.64v-9.28z" stroke="#000" stroke-width="2"/><path d="M391.6 559h-2v-53.87h2zm39.76-98h-35.68l-1.27.2-2 1.46-.8 2.5v18.37h-2v-18.7l1.1-3.4 2.92-2.12 1.9-.3h35.84zm-39.76 99h-2v-1h2zm54.76-100l-14.27 4.64v-9.28z"/><path d="M449.6 460l-18.5 6v-12zm-16.5 3.26l10-3.26-10.03-3.26z"/><use transform="translate(376.12 497.934)" xlink:href="#Y"/><path d="M675.3 405c0-2.76 2.24-5 5-5h150c2.76 0 5 2.24 5 5v110c0 2.76-2.24 5-5 5h-150c-2.76 0-5-2.24-5-5z" fill="#cce5ff" stroke="#06c" stroke-width="2"/><g transform="translate(684.878 463.15)"><use transform="scale(.05)" xlink:href="#k"/><use transform="translate(12.95) scale(.05)" xlink:href="#a"/><use transform="translate(22.95) scale(.05)" xlink:href="#n"/><use transform="translate(27.95) scale(.05)" xlink:href="#o"/><use transform="translate(37.95) scale(.05)" xlink:href="#b"/><use transform="translate(47.95) scale(.05)" xlink:href="#l"/><use transform="translate(57.95) scale(.05)" xlink:href="#O"/><use transform="translate(63.9) scale(.05)" xlink:href="#V"/></g><use transform="translate(762.778 463.15)" xlink:href="#Z"/><path d="M756.3 380.76h-2V360.8h2zm-56.85-41.56h-2V301h2zm0-38.2h-2v-1h2zm55.85 94.76l-4.64-14.26h9.27z"/><path d="M755.3 399l-6-18.5h12zm-3.26-16.5l3.26 10.03 3.26-10.03z"/><g transform="translate(690.424 353.6)"><use transform="scale(.05)" xlink:href="#p"/><use transform="translate(12.95) scale(.05)" xlink:href="#i"/><use transform="translate(22.95) scale(.05)" xlink:href="#g"/><use transform="translate(27.95) scale(.05)" xlink:href="#d"/><use transform="translate(37.95) scale(.05)" xlink:href="#j"/><use transform="translate(47.95) scale(.05)" xlink:href="#q"/><use transform="translate(57.95) scale(.05)" xlink:href="#aa"/><use transform="translate(63.9) scale(.05)" xlink:href="#t"/></g><path d="M1080 405c0-2.76 2.24-5 5-5h150c2.76 0 5 2.24 5 5v110c0 2.76-2.24 5-5 5h-150c-2.76 0-5-2.24-5-5z" fill="#cce5ff" stroke="#06c" stroke-width="2"/><g transform="translate(1121.755 463.15)"><path d="M11.65-8.85c-.05 2.05-1.15 3.2-3 3.5L12.15 0h-1.9L7-5.15H3.15V0H1.5v-12.4c4.4.15 10.25-1.05 10.15 3.55zm-8.5 2.4c3-.1 6.85.65 6.85-2.35 0-3.05-4-2.1-6.85-2.25z" fill="#004c99"/><use transform="translate(12.95) scale(.05)" xlink:href="#ab"/><use transform="translate(22.95) scale(.05)" xlink:href="#ac"/></g><g transform="translate(1159.705 463.15)"><path d="M6.85 0h-1.7L.1-12.4h1.75L6-1.5l4.15-10.9h1.8" fill="#004c99"/><use transform="translate(11.65) scale(.05)" xlink:href="#ad"/><use transform="translate(15.6) scale(.05)" xlink:href="#ae"/><path d="M35.9 0h-1.8l-2-8.2L30.05 0h-1.8l-2.7-9.5h1.6l1.95 8.2 2.15-8.2h1.7L35-1.3l2.1-8.2h1.55" fill="#004c99"/></g><path d="M1155.16 329l3.4 1.1 2.13 2.92.3 1.9v45.84h-2v-45.68l-.2-1.26-1.46-2-2.5-.82h-192.3v-2zm-353.9-1.66l2 1.46 1.26.2H924v2H804.36l-1.9-.3-2.9-2.13-1.12-3.4v-25.6h2v25.27zm-.82-27.78h-2v-.48l1.93-1.57.07-.1zm359.56 96.2l-4.64-14.26h9.28z"/><path d="M1160 399l-6-18.5h12zm-3.26-16.5l3.26 10.03 3.26-10.03z"/><g transform="translate(923.998 333.6)"><path d="M6.85 0h-1.7L.1-12.4h1.75L6-1.5l4.15-10.9h1.8"/><use transform="translate(11.65) scale(.05)" xlink:href="#af"/><use transform="translate(15.6) scale(.05)" xlink:href="#d"/><path d="M35.9 0h-1.8l-2-8.2L30.05 0h-1.8l-2.7-9.5h1.6l1.95 8.2 2.15-8.2h1.7L35-1.3l2.1-8.2h1.55"/></g><path d="M1280 405c0-2.76 2.24-5 5-5h150c2.76 0 5 2.24 5 5v110c0 2.76-2.24 5-5 5h-150c-2.76 0-5-2.24-5-5z" fill="#cce5ff" stroke="#06c" stroke-width="2"/><g transform="translate(1319.055 451.9)"><path d="M1.5-12.4c5.9-.35 10.8.4 10.65 6.1C12-2.4 10 0 6.1 0H1.5zM3.15-1.35c4.45.4 7.3-.8 7.3-4.95s-3-5.05-7.3-4.75z" fill="#004c99"/><use transform="translate(12.95) scale(.05)" xlink:href="#ag"/><path d="M27.75-8.45c-2 0-2.4 1.65-2.4 3.65s.45 3.75 2.4 3.75c1.2 0 2.05-.7 2.15-1.9l1.6.1C31.2-1 29.95.2 27.8.2c-2.95 0-3.8-2.05-4.1-4.95-.5-4.65 5.05-6.55 7.35-3.2.2.35.25.7.35 1.1l-1.6.15c-.2-1.05-.8-1.75-2.05-1.75" fill="#004c99"/><use transform="translate(31.95) scale(.05)" xlink:href="#ab"/><use transform="translate(41.95) scale(.05)" xlink:href="#ah"/><use transform="translate(56.9) scale(.05)" xlink:href="#ae"/><use transform="translate(66.9) scale(.05)" xlink:href="#ac"/><use transform="translate(76.9) scale(.05)" xlink:href="#ai"/></g><g transform="translate(1317.58 473.5)"><path d="M9.5 0L2.9-10.55 2.95 0H1.5v-12.4h1.95L10.1-1.75 10-12.4h1.55V0z" fill="#004c99"/><use transform="translate(12.95) scale(.05)" xlink:href="#aj"/><path d="M28.35 0h-1.9L23-9.5h1.7l2.7 8.25 2.8-8.25h1.7" fill="#004c99"/><use transform="translate(31.95) scale(.05)" xlink:href="#ad"/><use transform="translate(35.9) scale(.05)" xlink:href="#ak"/><use transform="translate(45.9) scale(.05)" xlink:href="#aj"/><use transform="translate(55.9) scale(.05)" xlink:href="#ai"/><use transform="translate(60.9) scale(.05)" xlink:href="#ad"/><use transform="translate(64.85) scale(.05)" xlink:href="#ag"/><use transform="translate(74.85) scale(.05)" xlink:href="#ac"/></g><path d="M1358.57 280.1l2.12 2.92.3 1.9v95.84h-2v-95.68l-.2-1.26-1.46-2-2.5-.82H1159.1v-2h196.06zm-554.68.9v-2h124.55v2z"/><path d="M803.9 281h-3v-2h3zM1360 395.76l-4.64-14.26h9.28z"/><path d="M1360 399l-6-18.5h12zm-3.26-16.5l3.26 10.03 3.26-10.03z"/><g transform="translate(928.451 283.6)"><use transform="scale(.05)" xlink:href="#J"/><use transform="translate(12.95) scale(.05)" xlink:href="#q"/><use transform="translate(22.95) scale(.05)" xlink:href="#f"/><use transform="translate(31.95) scale(.05)" xlink:href="#K"/><use transform="translate(41.95) scale(.05)" xlink:href="#s"/><use transform="translate(56.9) scale(.05)" xlink:href="#d"/><use transform="translate(66.9) scale(.05)" xlink:href="#r"/><use transform="translate(76.9) scale(.05)" xlink:href="#g"/></g><g transform="translate(1015.351 283.6)"><path d="M11.65-8.85c-.05 2.05-1.15 3.2-3 3.5L12.15 0h-1.9L7-5.15H3.15V0H1.5v-12.4c4.4.15 10.25-1.05 10.15 3.55zm-8.5 2.4c3-.1 6.85.65 6.85-2.35 0-3.05-4-2.1-6.85-2.25z"/><use transform="translate(12.95) scale(.05)" xlink:href="#q"/><use transform="translate(22.95) scale(.05)" xlink:href="#q"/><use transform="translate(32.95) scale(.05)" xlink:href="#g"/></g><g transform="translate(1058.301 283.6)"><path d="M4.35 3.75C2.45 1.65 1.1-.85 1.1-4.7c0-3.8 1.4-6.3 3.25-8.35H5.9C4-11 2.7-8.45 2.7-4.65S4 1.7 5.9 3.75z"/><use transform="translate(5.95) scale(.05)" xlink:href="#c"/><path d="M23.25-8.45c-3.6 0-2.2 5.1-2.45 8.45h-1.6v-13.05h1.6l-.05 5.15c.6-1.05 1.4-1.8 3.05-1.8 4.45 0 2.65 5.8 3 9.7h-1.6v-6.05c.1-1.6-.4-2.45-1.95-2.4"/><use transform="translate(27.95) scale(.05)" xlink:href="#i"/><use transform="translate(37.95) scale(.05)" xlink:href="#aa"/><use transform="translate(43.9) scale(.05)" xlink:href="#d"/><path d="M55.4-12.4c4.35.05 9.55-.75 9.55 3.75 0 3.9-3.85 4-7.9 3.8V0H55.4zm1.65 6.25c2.85 0 6.2.55 6.2-2.5 0-2.95-3.4-2.35-6.2-2.4z"/><use transform="translate(65.9) scale(.05)" xlink:href="#q"/><use transform="translate(75.9) scale(.05)" xlink:href="#af"/><use transform="translate(79.85) scale(.05)" xlink:href="#r"/><use transform="translate(89.85) scale(.05)" xlink:href="#g"/><path d="M96.5-13.05c1.9 2.05 3.25 4.6 3.25 8.4S98.4 1.7 96.5 3.75h-1.55c1.85-2.05 3.2-4.6 3.2-8.4s-1.35-6.35-3.2-8.4z"/></g><path d="M1480 405c0-2.76 2.24-5 5-5h150c2.76 0 5 2.24 5 5v110c0 2.76-2.24 5-5 5h-150c-2.76 0-5-2.24-5-5z" fill="#cce5ff" stroke="#06c" stroke-width="2"/><g transform="translate(1506.605 451.9)"><path d="M10.6-8.95c-.5-1.4-1.75-2.25-3.65-2.25-2.95 0-4.35 2-4.35 4.95 0 3 1.45 5.05 4.45 5.05 2.15 0 3.1-1.2 3.9-2.6l1.35.7C11.4-1.2 9.75.2 6.95.2 2.95.2 1.1-2.3.9-6.25c-.3-5.2 4.95-7.65 9.35-5.55.95.45 1.55 1.3 1.95 2.3" fill="#004c99"/><use transform="translate(12.95) scale(.05)" xlink:href="#ag"/><use transform="translate(22.95) scale(.05)" xlink:href="#ac"/><path d="M38-11.7c-1.55-.45-2.1.5-1.9 2.2H38v1.15h-1.9V0h-1.55v-8.35H33.2V-9.5h1.35c-.35-2.6.85-4.1 3.45-3.4z" fill="#004c99"/><use transform="translate(37.95) scale(.05)" xlink:href="#ad"/><use transform="translate(41.9) scale(.05)" xlink:href="#ak"/><use transform="translate(51.9) scale(.05)" xlink:href="#ab"/><path d="M67.6-8.15c-3.9-.8-2.65 4.55-2.85 8.15h-1.6l-.05-9.5h1.5c.05.6-.05 1.45.1 1.95C65-8.9 65.85-10 67.6-9.6z" fill="#004c99"/><use transform="translate(67.85) scale(.05)" xlink:href="#aj"/><use transform="translate(77.85) scale(.05)" xlink:href="#ai"/><use transform="translate(82.85) scale(.05)" xlink:href="#ad"/><use transform="translate(86.8) scale(.05)" xlink:href="#ag"/><use transform="translate(96.8) scale(.05)" xlink:href="#ac"/></g><g transform="translate(1509.63 473.5)"><path d="M4.35 3.75C2.45 1.65 1.1-.85 1.1-4.7c0-3.8 1.4-6.3 3.25-8.35H5.9C4-11 2.7-8.45 2.7-4.65S4 1.7 5.9 3.75z" fill="#004c99"/><path d="M17.95 0l.1-10.9c-1.15 3.8-2.7 7.25-4 10.9H12.9L8.85-10.9 8.9 0H7.45v-12.4h2.2L13.5-1.85c1.05-3.75 2.55-7 3.8-10.55h2.15V0z" fill="#004c99"/><use transform="translate(20.9) scale(.05)" xlink:href="#ae"/><use transform="translate(30.9) scale(.05)" xlink:href="#ai"/><use transform="translate(35.9) scale(.05)" xlink:href="#aj"/><use transform="translate(45.9) scale(.05)" xlink:href="#ah"/><use transform="translate(60.85) scale(.05)" xlink:href="#ag"/><path d="M75.1-9.7c1.55 0 2.4.65 3 1.65l-.05-5h1.6L79.7 0h-1.5c-.1-.5 0-1.15-.15-1.55C77.55-.4 76.65.2 75.1.2c-2.65 0-3.45-1.95-3.5-4.9 0-3.3 1.15-5 3.5-5zm.45 1.2c-2 0-2.3 1.7-2.3 3.75 0 2 .3 3.7 2.25 3.7 2.1 0 2.55-1.6 2.55-3.8 0-2.1-.45-3.7-2.5-3.65" fill="#004c99"/><use transform="translate(80.85) scale(.05)" xlink:href="#ae"/><g fill="#004c99"><path d="M92.05 0v-13.05h1.6V0z"/><path d="M96.45-13.05c1.9 2.05 3.25 4.6 3.25 8.4s-1.35 6.35-3.25 8.4H94.9c1.85-2.05 3.2-4.6 3.2-8.4s-1.35-6.35-3.2-8.4z"/></g></g><path d="M1558.57 220.1l2.12 2.92.3 1.9v155.84h-2V225.08l-.2-1.26-1.46-2-2.5-.82h-462.57v-2h462.9zm-544.15.9H764.08l-1.26.2-2 1.46-.82 2.5V259h-2v-34.16l1.1-3.4 2.92-2.13 1.9-.3h250.5zM760 260h-2v-1h2zm800 135.76l-4.64-14.26h9.28z"/><path d="M1560 399l-6-18.5h12zm-3.26-16.5l3.26 10.03 3.26-10.03z"/><g transform="translate(1014.422 223.6)"><use transform="scale(.05)" xlink:href="#p"/><use transform="translate(12.95) scale(.05)" xlink:href="#q"/><use transform="translate(22.95) scale(.05)" xlink:href="#r"/><path d="M38-11.7c-1.55-.45-2.1.5-1.9 2.2H38v1.15h-1.9V0h-1.55v-8.35H33.2V-9.5h1.35c-.35-2.6.85-4.1 3.45-3.4z"/><use transform="translate(37.95) scale(.05)" xlink:href="#af"/><use transform="translate(41.9) scale(.05)" xlink:href="#j"/><use transform="translate(51.9) scale(.05)" xlink:href="#K"/><use transform="translate(61.9) scale(.05)" xlink:href="#aa"/><use transform="translate(67.85) scale(.05)" xlink:href="#d"/></g><path d="M231 910h-35c-2.76 0-5-2.24-5-5V745c0-2.76 2.24-5 5-5h35" fill="#fff"/><path d="M231 905c0 2.76-2.24 5-5 5h-30c-2.76 0-5-2.24-5-5V745c0-2.76 2.24-5 5-5h30c2.76 0 5 2.24 5 5zm0 5h1390.94c2.76 0 5-2.24 5-5V745c0-2.76-2.24-5-5-5H231m0 170V740" fill="none" stroke="#000" stroke-width="2"/><use transform="rotate(-90 553.775 339.175)" xlink:href="#al"/><use transform="rotate(-90 515.3 300.7)" xlink:href="#am"/><use transform="rotate(-90 495.825 281.225)" xlink:href="#an"/><path d="M251 765c0-2.76 2.24-5 5-5h110c2.76 0 5 2.24 5 5v110c0 2.76-2.24 5-5 5H256c-2.76 0-5-2.24-5-5z" fill="#c00"/><use transform="translate(285.03 823.15)" xlink:href="#ao"/><path d="M391 765c0-2.76 2.24-5 5-5h230c2.76 0 5 2.24 5 5v110c0 2.76-2.24 5-5 5H396c-2.76 0-5-2.24-5-5z" fill="#c00"/><use transform="translate(463.055 823.15)" xlink:href="#ap"/><use transform="translate(520.005 823.15)" xlink:href="#aq"/><path d="M711 765c0-2.76 2.24-5 5-5h110c2.76 0 5 2.24 5 5v110c0 2.76-2.24 5-5 5H716c-2.76 0-5-2.24-5-5z" fill="#f93"/><use transform="translate(721.605 823.15)" xlink:href="#ar"/><path d="M851 765c0-2.76 2.24-5 5-5h230c2.76 0 5 2.24 5 5v110c0 2.76-2.24 5-5 5H856c-2.76 0-5-2.24-5-5z" fill="#f93"/><use transform="translate(899.63 823.15)" xlink:href="#as"/><use transform="translate(1003.43 823.15)" xlink:href="#aq"/><path d="M1231 765c0-2.76 2.24-5 5-5h150c2.76 0 5 2.24 5 5v115c-26.72-20.04-43.36-20.04-53.44-20.04-16 0-37.28 20.04-53.28 20.04-9.92 0-26.72 0-53.28-20.04z" fill="#fff" stroke="#000" stroke-width="2"/><use transform="translate(1270.055 823.15)" xlink:href="#at"/><path d="M1413 765c0-2.76 2.24-5 5-5h134c2.76 0 5 2.24 5 5v97c-24.05-17.03-39.02-17.03-48.1-17.03-14.4 0-33.55 17.03-47.95 17.03-8.93 0-24.05 0-47.95-17.03z" fill="#fff" stroke="#000" stroke-width="2"/><path d="M1421 774c0-2.76 2.24-5 5-5h134c2.76 0 5 2.24 5 5v97c-24.05-17.03-39.02-17.03-48.1-17.03-14.4 0-33.55 17.03-47.95 17.03-8.93 0-24.05 0-47.95-17.03z" fill="#fff" stroke="#000" stroke-width="2"/><path d="M1429 783c0-2.76 2.24-5 5-5h134c2.76 0 5 2.24 5 5v97c-24.05-17.03-39.02-17.03-48.1-17.03-14.4 0-33.55 17.03-47.95 17.03-8.93 0-24.05 0-47.95-17.03z" fill="#fff" stroke="#000" stroke-width="2"/><use transform="translate(1452.055 811.9)" xlink:href="#au"/><use transform="translate(1449.03 833.5)" xlink:href="#av"/><path d="M190.6 1150h-35c-2.77 0-5-2.24-5-5V985c0-2.76 2.23-5 5-5h35" fill="#fff"/><path d="M190.6 1145c0 2.76-2.24 5-5 5h-30c-2.77 0-5-2.24-5-5V985c0-2.76 2.23-5 5-5h30c2.76 0 5 2.24 5 5zm0 5h416.87c2.76 0 5-2.24 5-5V985c0-2.76-2.24-5-5-5H190.6m0 170V980" fill="none" stroke="#000" stroke-width="2"/><use transform="rotate(-90 653.573 479.377)" xlink:href="#al"/><use transform="rotate(-90 615.098 440.902)" xlink:href="#am"/><use transform="rotate(-90 595.623 421.427)" xlink:href="#an"/><path d="M210.6 1005c0-2.76 2.23-5 5-5h110c2.76 0 5 2.24 5 5v110c0 2.76-2.24 5-5 5h-110c-2.77 0-5-2.24-5-5z" fill="#c00"/><use transform="translate(244.626 1063.15)" xlink:href="#ao"/><path d="M350.6 1005c0-2.76 2.23-5 5-5h230c2.76 0 5 2.24 5 5v110c0 2.76-2.24 5-5 5h-230c-2.77 0-5-2.24-5-5z" fill="#c00"/><use transform="translate(422.65 1063.15)" xlink:href="#ap"/><use transform="translate(479.6 1063.15)" xlink:href="#aq"/><path d="M750.6 1150h-35c-2.77 0-5-2.24-5-5V985c0-2.76 2.23-5 5-5h35" fill="#fff"/><path d="M750.6 1145c0 2.76-2.24 5-5 5h-30c-2.77 0-5-2.24-5-5V985c0-2.76 2.23-5 5-5h30c2.76 0 5 2.24 5 5zm0 5h420.93c2.76 0 5-2.24 5-5V985c0-2.76-2.24-5-5-5H750.6m0 170V980" fill="none" stroke="#000" stroke-width="2"/><use transform="rotate(-90 933.573 199.377)" xlink:href="#al"/><use transform="rotate(-90 895.098 160.902)" xlink:href="#am"/><use transform="rotate(-90 875.623 141.427)" xlink:href="#an"/><path d="M770.6 1005c0-2.76 2.23-5 5-5h110c2.76 0 5 2.24 5 5v110c0 2.76-2.24 5-5 5h-110c-2.77 0-5-2.24-5-5z" fill="#f93"/><use transform="translate(781.2 1063.15)" xlink:href="#ar"/><path d="M910.6 1005c0-2.76 2.23-5 5-5h230c2.76 0 5 2.24 5 5v110c0 2.76-2.24 5-5 5h-230c-2.77 0-5-2.24-5-5z" fill="#f93"/><use transform="translate(959.226 1063.15)" xlink:href="#as"/><use transform="translate(1063.026 1063.15)" xlink:href="#aq"/><path d="M1317.63 1150h-35c-2.76 0-5-2.24-5-5V985c0-2.76 2.24-5 5-5h35" fill="#fff"/><path d="M1317.63 1145c0 2.76-2.24 5-5 5h-30c-2.76 0-5-2.24-5-5V985c0-2.76 2.24-5 5-5h30c2.76 0 5 2.24 5 5zm0 5h420.93c2.77 0 5-2.24 5-5V985c0-2.76-2.23-5-5-5h-420.93m0 170V980" fill="none" stroke="#000" stroke-width="2"/><use transform="rotate(-90 1217.089 -84.139)" xlink:href="#al"/><use transform="rotate(-90 1178.614 -122.614)" xlink:href="#am"/><use transform="rotate(-90 1159.139 -142.089)" xlink:href="#an"/><path d="M1332.6 1005c0-2.76 2.23-5 5-5h150c2.76 0 5 2.24 5 5v115c-26.72-20.04-43.36-20.04-53.44-20.04-16 0-37.28 20.04-53.28 20.04-9.92 0-26.72 0-53.28-20.04z" fill="#fff" stroke="#000" stroke-width="2"/><use transform="translate(1371.65 1063.15)" xlink:href="#at"/><path d="M1512.6 1005c0-2.76 2.23-5 5-5h134c2.76 0 5 2.24 5 5v97c-24.05-17.03-39.03-17.03-48.1-17.03-14.4 0-33.55 17.03-47.95 17.03-8.93 0-24.05 0-47.95-17.03z" fill="#fff" stroke="#000" stroke-width="2"/><path d="M1520.6 1014c0-2.76 2.23-5 5-5h134c2.76 0 5 2.24 5 5v97c-24.05-17.03-39.03-17.03-48.1-17.03-14.4 0-33.55 17.03-47.95 17.03-8.93 0-24.05 0-47.95-17.03z" fill="#fff" stroke="#000" stroke-width="2"/><path d="M1528.6 1023c0-2.76 2.23-5 5-5h134c2.76 0 5 2.24 5 5v97c-24.05-17.03-39.03-17.03-48.1-17.03-14.4 0-33.55 17.03-47.95 17.03-8.93 0-24.05 0-47.95-17.03z" fill="#fff" stroke="#000" stroke-width="2"/><use transform="translate(1551.65 1051.9)" xlink:href="#au"/><use transform="translate(1548.626 1073.5)" xlink:href="#av"/><path d="M511 880v65c0 2.76-2.24 5-5 5H125c-2.76 0-5 2.24-5 5v105c0 2.76 2.24 5 5 5h6.36" fill="none" stroke="#600" stroke-width="2"/><path d="M146.36 1065l-14.27 4.64v-9.28z" fill="#600" stroke="#600" stroke-width="2"/><path d="M971 880v75c0 2.76-2.24 5-5 5H685c-2.76 0-5 2.24-5 5v95c0 2.76 2.24 5 5 5h6.36" fill="none" stroke="#600" stroke-width="2"/><path d="M706.36 1065l-14.27 4.64v-9.28z" fill="#600" stroke="#600" stroke-width="2"/><path d="M1493 876.03V955c0 2.76-2.24 5-5 5h-246.37c-2.76 0-5 2.24-5 5v95c0 2.76 2.24 5 5 5h16.76" fill="none" stroke="#600" stroke-width="2"/><path d="M1494 876.03h-2v-.64l2-.93z" fill="#600"/><path d="M1273.4 1065l-14.27 4.64v-9.28z" fill="#600" stroke="#600" stroke-width="2"/><path d="M470.6 1120v35c0 2.76-2.24 5-5 5h-351c-2.77 0-5-2.24-5-5v-85c0-2.76 2.23-5 5-5h16.76" fill="none" stroke="#600" stroke-width="2"/><path d="M146.36 1065l-14.27 4.64v-9.28z" fill="#600" stroke="#600" stroke-width="2"/><path d="M1030.6 1120v35c0 2.76-2.24 5-5 5h-351c-2.77 0-5-2.24-5-5v-85c0-2.76 2.23-5 5-5h16.76" fill="none" stroke="#600" stroke-width="2"/><path d="M706.36 1065l-14.27 4.64v-9.28z" fill="#600" stroke="#600" stroke-width="2"/><path d="M1600.74 1112.26V1185c0 2.76-2.24 5-5 5h-354.1c-2.77 0-5-2.24-5-5v-115c0-2.76 2.23-5 5-5h16.75" fill="none" stroke="#600" stroke-width="2"/><path d="M1601.74 1112.26h-2v-.64l2-.93z" fill="#600"/><path d="M1273.4 1065l-14.27 4.64v-9.28z" fill="#600" stroke="#600" stroke-width="2"/><path d="M530.6 521v94c0 2.76-2.24 5-5 5H155c-2.76 0-5 2.24-5 5v195c0 2.76 2.24 5 5 5h16.76" fill="none" stroke="#009" stroke-width="2"/><path d="M531.6 521h-2v-1h2z" fill="#009"/><path d="M186.76 825l-14.26 4.64v-9.28z" fill="#009" stroke="#009" stroke-width="2"/><path d="M755.3 521v124c0 2.76-2.24 5-5 5H155c-2.76 0-5 2.24-5 5v165c0 2.76 2.24 5 5 5h16.76" fill="none" stroke="#009" stroke-width="2"/><g fill="#009"><path d="M756.3 521h-2v-1h2z"/><path d="M186.76 825l-14.26 4.64v-9.28z" stroke="#009" stroke-width="2"/><path d="M1161 685.16l-1.1 3.4-2.92 2.13-1.9.3H155.16l-2.5.82-1.46 2-.2 1.26v124.76l.82 2.5 2 1.46 1.26.2h16.68v2h-16.84l-1.9-.3-2.9-2.13-1.12-3.4V694.9l.3-1.9 2.13-2.9 3.4-1.12h1000.1l1.25-.2 2-1.46.82-2.5V521h2zm0-164.16h-2v-1h2z"/><path d="M186.76 825l-14.26 4.64v-9.28z"/><path d="M190 825l-18.5 6v-12zm-16.5 3.26l10.03-3.26-10.03-3.26z"/><path d="M1361 715.16l-1.1 3.4-2.92 2.13-1.9.3H155.16l-2.5.82-1.46 2-.2 1.26v94.76l.82 2.5 2 1.46 1.26.2h16.68v2h-16.84l-1.9-.3-2.9-2.13-1.12-3.4V724.9l.3-1.9 2.13-2.9 3.4-1.12h1200.1l1.25-.2 2-1.46.82-2.5V521h2zm0-194.16h-2v-1h2z"/><path d="M186.76 825l-14.26 4.64v-9.28z"/><path d="M190 825l-18.5 6v-12zm-16.5 3.26l10.03-3.26-10.03-3.26z"/></g><path d="M770 1325c0-2.76 2.24-5 5-5h150c2.76 0 5 2.24 5 5v110c0 2.76-2.24 5-5 5H775c-2.76 0-5-2.24-5-5z" fill="#cce5ff" stroke="#06c" stroke-width="2"/><g transform="translate(799.08 1383.15)"><use transform="scale(.05)" xlink:href="#L"/><use transform="translate(12.95) scale(.05)" xlink:href="#o"/><use transform="translate(22.95) scale(.05)" xlink:href="#n"/><use transform="translate(27.95) scale(.05)" xlink:href="#a"/><use transform="translate(37.95) scale(.05)" xlink:href="#aw"/><use transform="translate(41.9) scale(.05)" xlink:href="#R"/><use transform="translate(45.85) scale(.05)" xlink:href="#M"/></g><g transform="translate(858.93 1383.15)"><path d="M1.5-12.4c4.35.05 9.55-.75 9.55 3.75 0 3.9-3.85 4-7.9 3.8V0H1.5zm1.65 6.25c2.85 0 6.2.55 6.2-2.5 0-2.95-3.4-2.35-6.2-2.4z" fill="#036"/><use transform="translate(12) scale(.05)" xlink:href="#a"/><use transform="translate(22) scale(.05)" xlink:href="#b"/><use transform="translate(32) scale(.05)" xlink:href="#o"/></g><path d="M311 880l-1 40H80v460h670.76" fill="none" stroke="#090" stroke-width="2"/><path d="M312 880.02l-1-.02h1z" fill="#090"/><path d="M765.76 1380l-14.26 4.64v-9.28z" fill="#090" stroke="#090" stroke-width="2"/><path d="M270.6 1120v35c2.76 0 5 2.24 5 5s-2.24 5-5 5v179.63c0 2.76 2.23 5 5 5h475.16" fill="none" stroke="#090" stroke-width="2"/><path d="M765.76 1349.63l-14.26 4.63V1345z" fill="#090" stroke="#090" stroke-width="2"/><path d="M830.6 1120v35c2.76 0 5 2.24 5 5s-2.24 5-5 5v54.04c0 .25-.2.46-.47.46-.26 0-.46.2-.46.46v80.8" fill="none" stroke="#090" stroke-width="2"/><path d="M829.67 1315.76l-4.64-14.26h9.27z" fill="#090" stroke="#090" stroke-width="2"/><path d="M771 880l-1 50H640v330h150l-.7 40.77" fill="none" stroke="#090" stroke-width="2"/><path d="M772 880.02l-1-.02h1z" fill="#090"/><path d="M789.05 1315.76l-4.4-14.34 9.28.16z" fill="#090" stroke="#090" stroke-width="2"/><path d="M1311 870.88l-1 59.12h-100v420l-260.76-.35" fill="none" stroke="#090" stroke-width="2"/><path d="M1312 870.9l-2-.03v-.6l2.03-1.02z" fill="#090"/><path d="M934.24 1349.63l14.27-4.62v9.28z" fill="#090" stroke="#090" stroke-width="2"/><path d="M1412.6 1110.88V1185c2.76 0 5 2.24 5 5s-2.24 5-5 5v210.38c0 2.76-2.24 5-5 5H949.24" fill="none" stroke="#090" stroke-width="2"/><path d="M1413.6 1110.88h-2v-.6l2-1.02z" fill="#090"/><path d="M934.24 1410.38l14.26-4.64v9.27z" fill="#090" stroke="#090" stroke-width="2"/><path d="M880 405c0-2.76 2.24-5 5-5h150c2.76 0 5 2.24 5 5v110c0 2.76-2.24 5-5 5H885c-2.76 0-5-2.24-5-5z" fill="#cce5ff" stroke="#06c" stroke-width="2"/><g transform="translate(886.755 451.9)"><path d="M6.85 0h-1.7L.1-12.4h1.75L6-1.5l4.15-10.9h1.8" fill="#036"/><use transform="translate(11.65) scale(.05)" xlink:href="#aw"/><use transform="translate(15.6) scale(.05)" xlink:href="#o"/><path d="M35.9 0h-1.8l-2-8.2L30.05 0h-1.8l-2.7-9.5h1.6l1.95 8.2 2.15-8.2h1.7L35-1.3l2.1-8.2h1.55" fill="#036"/><use transform="translate(38.55) scale(.05)" xlink:href="#M"/></g><g transform="translate(939.305 451.9)"><use transform="scale(.05)" xlink:href="#S"/><use transform="translate(14) scale(.05)" xlink:href="#O"/><use transform="translate(19.95) scale(.05)" xlink:href="#l"/><use transform="translate(29.95) scale(.05)" xlink:href="#T"/><use transform="translate(39.95) scale(.05)" xlink:href="#U"/><use transform="translate(49.95) scale(.05)" xlink:href="#o"/><use transform="translate(59.95) scale(.05)" xlink:href="#P"/></g><g transform="translate(1014.255 451.9)"><use transform="scale(.05)" xlink:href="#N"/><use transform="translate(10) scale(.05)" xlink:href="#V"/></g><use transform="translate(945.53 473.5)" xlink:href="#W"/><path d="M981.3 584.83c-.72-2.67.94-4.83 3.7-4.83h110c2.76 0 4.42 2.16 3.7 4.83l-8.08 30.34c-.7 2.67-3.53 4.83-6.3 4.83h-88.65c-2.76 0-5.58-2.16-6.3-4.83z" fill="#fff" stroke="#000" stroke-width="2"/><use transform="translate(1015.03 604.4)" xlink:href="#X"/><path d="M960 521v74c0 2.76 2.24 5 5 5h1.06" fill="none" stroke="#000" stroke-width="2"/><path d="M961 521h-2v-1h2z"/><path d="M981.06 600l-14.26 4.64v-9.28z" stroke="#000" stroke-width="2"/><path d="M1048.57 551h-3.5l-1.25.2-2 1.46-.82 2.5V579h-2v-24.16l1.1-3.4 2.92-2.13 1.9-.3h3.65zm61.6-5.92l-.3 1.9-2.13 2.9-3.4 1.12h-26.82v-2h26.5l2.48-.82 1.46-2 .2-1.26v-5.68h2zM1041 580h-2v-1h2zm72.8-41.5h-9.27l4.64-14.26z"/><path d="M1115.18 539.5h-12.03l6.02-18.5zm-9.27-2h6.53l-3.26-10.03z"/><use transform="translate(1048.572 553.6)" xlink:href="#Y"/><path d="M955.16 359l3.4 1.1 2.13 2.92.3 1.9v15.84h-2v-15.68l-.2-1.26-1.46-2-2.5-.82H848.66v-2zm-173.34-1.66l2 1.46 1.26.2h34.63v2h-34.78l-1.9-.3-2.9-2.13-1.12-3.4V300h2v54.84zM960 395.76l-4.64-14.26h9.28z"/><path d="M960 399l-6-18.5h12zm-3.26-16.5l3.26 10.03 3.26-10.03z"/><use transform="translate(819.714 363.6)" xlink:href="#Y"/></g></svg>