<svg width="502" height="188" xmlns="http://www.w3.org/2000/svg"><g fill="none" fill-rule="evenodd"><path d="M31 63h123.358a1 1 0 0 1 1 1v64.623a1 1 0 0 1-1 1H31a1 1 0 0 1-1-1V64a1 1 0 0 1 1-1zm346 0h123.358a1 1 0 0 1 1 1v64.623a1 1 0 0 1-1 1H377a1 1 0 0 1-1-1V64a1 1 0 0 1 1-1zm-198 0h123.358a1 1 0 0 1 1 1v64.623a1 1 0 0 1-1 1H179a1 1 0 0 1-1-1V64a1 1 0 0 1 1-1z" fill="#FFF" fill-rule="nonzero"/><path d="M5.444 1h321.112C329.01 1 331 5.477 331 11v166.207c0 5.523-1.99 10-4.444 10H5.444c-2.454 0-4.444-4.477-4.444-10V11C1 5.477 2.99 1 5.444 1z" stroke="gray" stroke-linecap="round" stroke-linejoin="round"/><text transform="translate(24.807 16.495)" fill="#333" font-family="Helvetica-Bold, Helvetica" font-size="18" font-weight="bold"><tspan x="0" y="18">Filters</tspan></text><path d="M31 63h123.358a1 1 0 0 1 1 1v64.623a1 1 0 0 1-1 1H31a1 1 0 0 1-1-1V64a1 1 0 0 1 1-1zm346 0h123.358a1 1 0 0 1 1 1v64.623a1 1 0 0 1-1 1H377a1 1 0 0 1-1-1V64a1 1 0 0 1 1-1zm-198 0h123.358c.552 0 1 .645 1 1.441v93.118c0 .796-.448 1.441-1 1.441H179c-.552 0-1-.645-1-1.441V64.441c0-.796.448-1.441 1-1.441z" stroke="#6E6F70" stroke-width="1.2" stroke-linecap="round" stroke-linejoin="round"/><path d="M184.255 109h31.49c.14 0 .255.208.255.465v30.07c0 .257-.114.465-.255.465h-31.49c-.14 0-.255-.208-.255-.465v-30.07c0-.257.114-.465.255-.465zm0 39h31.49c.14 0 .255.074.255.165v10.67c0 .091-.114.165-.255.165h-31.49c-.14 0-.255-.074-.255-.165v-10.67c0-.091.114-.165.255-.165zm40.008-39h32.474c.145 0 .263.208.263.465v30.07c0 .257-.118.465-.263.465h-32.474c-.145 0-.263-.208-.263-.465v-30.07c0-.257.118-.465.263-.465zm0 39h32.474c.145 0 .263.074.263.165v10.67c0 .091-.118.165-.263.165h-32.474c-.145 0-.263-.074-.263-.165v-10.67c0-.091.118-.165.263-.165zm39.992-39h31.49c.14 0 .255.208.255.465v30.07c0 .257-.114.465-.255.465h-31.49c-.14 0-.255-.208-.255-.465v-30.07c0-.257.114-.465.255-.465zm0 39h31.49c.14 0 .255.074.255.165v10.67c0 .091-.114.165-.255.165h-31.49c-.14 0-.255-.074-.255-.165v-10.67c0-.091.114-.165.255-.165z" stroke="#6E6F70" stroke-width="1.2" stroke-linecap="round" stroke-linejoin="round"/><path fill="#F0F0F2" fill-rule="nonzero" d="M31.0106 74.61873L154.69191 74.61873 154.69191 101.868888 31.0106 101.868888z"/><path fill="#F0F0F2" fill-rule="nonzero" d="M377.0106 74.61873L500.69191 74.61873 500.69191 101.868888 377.0106 101.868888z"/><path fill="#F0F0F2" fill-rule="nonzero" d="M179.0106 74.61873L302.69191 74.61873 302.69191 101.868888 179.0106 101.868888z"/><text fill="#4C4C4C" font-family="Helvetica" font-size="10"><tspan x="62.2" y="92">Ranges Page</tspan></text><text fill="#4C4C4C" font-family="Helvetica" font-size="10"><tspan x="408.202" y="92">Product Page</tspan></text><text fill="#4C4C4C" font-family="Helvetica" font-size="10"><tspan x="212.98" y="92">Listing Page</tspan></text><path d="M31 63h123.358a1 1 0 0 1 1 1v10.195a1 1 0 0 1-1 1H31a1 1 0 0 1-1-1V64a1 1 0 0 1 1-1zm346 0h123.358a1 1 0 0 1 1 1v10.195a1 1 0 0 1-1 1H377a1 1 0 0 1-1-1V64a1 1 0 0 1 1-1zm-198 0h123.358a1 1 0 0 1 1 1v10.195a1 1 0 0 1-1 1H179a1 1 0 0 1-1-1V64a1 1 0 0 1 1-1z" fill="#FFF" fill-rule="nonzero"/><path d="M31 63h123.358a1 1 0 0 1 1 1v10.195a1 1 0 0 1-1 1H31a1 1 0 0 1-1-1V64a1 1 0 0 1 1-1zm346 0h123.358a1 1 0 0 1 1 1v10.195a1 1 0 0 1-1 1H377a1 1 0 0 1-1-1V64a1 1 0 0 1 1-1zm-198 0h123.358a1 1 0 0 1 1 1v10.195a1 1 0 0 1-1 1H179a1 1 0 0 1-1-1V64a1 1 0 0 1 1-1z" stroke="#6E6F70" stroke-width="1.2" stroke-linecap="round" stroke-linejoin="round"/><path fill="#6E6F70" fill-rule="nonzero" d="M144.25767 65.91123L152.427605 65.91123 152.427605 67.055021 144.25767 67.055021z"/><path fill="#6E6F70" fill-rule="nonzero" d="M292.25767 65.91123L300.427605 65.91123 300.427605 67.055021 292.25767 67.055021z"/><path fill="#6E6F70" fill-rule="nonzero" d="M144.25767 68.52563L152.427605 68.52563 152.427605 69.669421 144.25767 69.669421z"/><path fill="#6E6F70" fill-rule="nonzero" d="M292.25767 68.52563L300.427605 68.52563 300.427605 69.669421 292.25767 69.669421z"/><path fill="#6E6F70" fill-rule="nonzero" d="M144.25767 71.14L152.427605 71.14 152.427605 72.283791 144.25767 72.283791z"/><path fill="#6E6F70" fill-rule="nonzero" d="M292.25767 71.14L300.427605 71.14 300.427605 72.283791 292.25767 72.283791z"/><path d="M172.405 99l-6.336-3.564-.436-.245.49-.872.436.245 8 4.5.775.436-.775.436-8 4.5-.436.245-.49-.872.436-.245 6.336-3.564H156v-1h16.405zm176 0l-6.336-3.564-.436-.245.49-.872.436.245 8 4.5.775.436-.775.436-8 4.5-.436.245-.49-.872.436-.245 6.336-3.564H302v-1h46.405z" fill="#6E6F70" fill-rule="nonzero"/></g></svg>