<svg height="1321" viewBox="0 0 1473 1321" width="1473" xmlns="http://www.w3.org/2000/svg"><g fill="none" fill-rule="evenodd" transform="translate(41 56)"><g transform="translate(642)"><path d="m0 0h134v63h-134z" fill="#bd10e0"/><text fill="#fff" font-family="SourceSansPro-Regular, Source Sans Pro" font-size="14"><tspan x="28.286" y="35">Landing Page</tspan></text></g><g transform="translate(26 132)"><path d="m0 0h134v63h-134z" fill="#9013fe"/><text fill="#fff" font-family="SourceSansPro-Regular, Source Sans Pro" font-size="14"><tspan x="41.194" y="35">Pensions</tspan></text></g><g transform="translate(334 132)"><path d="m0 0h134v63h-134z" fill="#9013fe"/><text fill="#fff" font-family="SourceSansPro-Regular, Source Sans Pro" font-size="14"><tspan x="38.114" y="35">Why Aviva</tspan></text></g><g transform="translate(488 132)"><path d="m0 0h134v63h-134z" fill="#9013fe"/><text fill="#fff" font-family="SourceSansPro-Regular, Source Sans Pro" font-size="14"><tspan x="40.879" y="24">Investing </tspan><tspan x="38.8" y="46">Explained</tspan></text></g><g transform="translate(796 132)"><path d="m0 0h134v63h-134z" fill="#9013fe"/><text fill="#fff" font-family="SourceSansPro-Regular, Source Sans Pro" font-size="14"><tspan x="27.649" y="35">News &amp; Views</tspan></text></g><g transform="translate(1104 132)"><path d="m0 0h134v63h-134z" fill="#9013fe"/><text fill="#fff" font-family="SourceSansPro-Regular, Source Sans Pro" font-size="14"><tspan x="28.972" y="24">Transfer your </tspan><tspan x="28.37" y="46">investements</tspan></text></g><g transform="translate(1258 132)"><path d="m0 0h134v63h-134z" fill="#9013fe"/><text fill="#fff" font-family="SourceSansPro-Regular, Source Sans Pro" font-size="14"><tspan x="28.972" y="24">Transfer your </tspan><tspan x="13.341" y="46">investements (ISA)</tspan></text></g><g transform="translate(642 132)"><path d="m0 0h134v63h-134z" fill="#9013fe"/><text fill="#fff" font-family="SourceSansPro-Regular, Source Sans Pro" font-size="14"><tspan x="39.262" y="24">Tools and </tspan><tspan x="34.579" y="46">Calculators</tspan></text></g><g transform="translate(180 132)"><path d="m0 0h134v63h-134z" fill="#9013fe"/><text fill="#fff" font-family="SourceSansPro-Regular, Source Sans Pro" font-size="14"><tspan x="31.114" y="24">Investement </tspan><tspan x="43.805" y="46">Account</tspan></text></g><g transform="translate(950 132)"><path d="m0 0h134v63h-134z" fill="#9013fe"/><text fill="#fff" font-family="SourceSansPro-Regular, Source Sans Pro" font-size="14"><tspan x="21.377" y="24">Stocks &amp; Shares </tspan><tspan x="58.113" y="46">ISA</tspan></text></g><g transform="translate(725 264)"><path d="m0 0h134v65h-134z" fill="#4a90e2"/><text fill="#fff" font-family="SourceSansPro-Regular, Source Sans Pro" font-size="14"><tspan x="27.782" y="36">Isa Calculator</tspan></text></g><g transform="translate(576 264)"><path d="m0 0h134v65h-134z" fill="#4a90e2"/><text fill="#fff" font-family="SourceSansPro-Regular, Source Sans Pro" font-size="14"><tspan x="31.114" y="25">Investement </tspan><tspan x="37.484" y="47">Calculator</tspan></text></g><g transform="translate(180 264)"><path d="m0 0h134v65h-134z" fill="#4a90e2"/><text fill="#fff" font-family="SourceSansPro-Regular, Source Sans Pro" font-size="14"><tspan x="27.824" y="25">Start an Aviva </tspan><tspan x="6.299" y="47">Investement account</tspan></text></g><g transform="translate(427 264)"><path d="m0 0h134v65h-134z" fill="#4a90e2"/><text fill="#fff" font-family="SourceSansPro-Regular, Source Sans Pro" font-size="14"><tspan x="31.394" y="36">Fund Choice</tspan></text></g><g transform="translate(427 398)"><path d="m0 0h134v65h-134z" fill="#22e0c7"/><text fill="#fff" font-family="SourceSansPro-Regular, Source Sans Pro" font-size="14"><tspan x="19.69" y="36">Experts Shortlist</tspan></text></g><g transform="translate(427 533)"><path d="m0 0h134v65h-134z" fill="#b8e986"/><text fill="#fff" font-family="SourceSansPro-Regular, Source Sans Pro" font-size="14"><tspan x="22.861" y="36">Compare funds</tspan></text></g><g transform="translate(576 398)"><path d="m0 0h134v65h-134z" fill="#22e0c7"/><text fill="#fff" font-family="SourceSansPro-Regular, Source Sans Pro" font-size="14"><tspan x="20.957" y="36">Full funds range</tspan></text></g><g transform="translate(278 398)"><path d="m0 0h134v65h-134z" fill="#22e0c7"/><text fill="#fff" font-family="SourceSansPro-Regular, Source Sans Pro" font-size="14"><tspan x="31.443" y="24">Ready made </tspan><tspan x="49.699" y="46">Funds</tspan></text></g><path d="m656 62v13.0661308h-556v52.8671362" stroke="#bd10e0"/><path d="m97 117.133267 3 10.8 3-10.8" stroke="#bd10e0"/><path d="m644.286435 35h-644.286435v189.406098h753.598749v34.058317" stroke="#bd10e0"/><path d="m750.598749 247.664415 3 10.8 3-10.8" stroke="#bd10e0"/><path d="m0 205v166.914203h314v22.550212" stroke="#bd10e0"/><path d="m311 383.664415 3 10.8 3-10.8" stroke="#bd10e0"/><path d="m709 194v21.828422h68.344819v41.950901" stroke="#9013fe"/><path d="m774.344819 246.979323 3 10.8 3-10.8" stroke="#9013fe"/><path d="m221 194v64.5" stroke="#9013fe"/><path d="m218 247.7 3 10.8 3-10.8" stroke="#9013fe"/><path d="m276 194v41.133112h356.340236v23.192383" stroke="#9013fe"/><path d="m629.340236 247.525495 3 10.8 3-10.8" stroke="#9013fe"/><path d="m246 194v50.133112h248v14.192383" stroke="#9013fe"/><path d="m491 247.525495 3 10.8 3-10.8" stroke="#9013fe"/><path d="m290 191.101301v11.710497h343.685127v-93.811798h63.407311v16.816079" stroke="#9013fe"/><path d="m694.092438 115.016079 3 10.8 3-10.8" stroke="#9013fe"/><path d="m299 327.233679v21.710496h113.685127l-.242177-135.134081h250.01598v-19.810094" stroke="#4a90e2"/><path d="m665.45893 204.8-3-10.8-3 10.8" stroke="#4a90e2"/><path d="m1030 191.827246v12.170637h217.86834v-119.997883h53.11272v43.342327" stroke="#9013fe"/><path d="m1297.98106 116.542327 3 10.8 3-10.8" stroke="#9013fe"/><path d="m1007.10789 192v21.891952h-207.10789v44.296067" stroke="#9013fe"/><path d="m797 247.388019 3 10.8 3-10.8" stroke="#9013fe"/><g stroke="#bd10e0"><path d="m670 60v24.5565965h-420v43.4494675"/><path d="m247 117.206064 3 10.8 3-10.8"/><path d="m681.809893 60v32.1643425h-276.809893v35.3841755"/><path d="m402 116.748518 3 10.8 3-10.8"/><path d="m696.608044 60v38.9851244h-139.608044v29.0808946"/><path d="m554 117.266019 3 10.8 3-10.8"/><path d="m1321 62v13.0661308h-556v52.8671362" transform="matrix(-1 0 0 1 2086 0)"/><path d="m762 117.133267 3 10.8 3-10.8"/><path d="m1171 60v24.5565965h-420v43.4494675" transform="matrix(-1 0 0 1 1922 0)"/><path d="m748 117.206064 3 10.8 3-10.8"/><path d="m1016.80989 60v32.1643425h-276.80989v35.3841755" transform="matrix(-1 0 0 1 1756.809892 0)"/><path d="m737 116.748518 3 10.8 3-10.8"/><path d="m864.608044 60v38.9851244h-139.608044v29.0808946" transform="matrix(-1 0 0 1 1589.608044 0)"/><path d="m722 117.266019 3 10.8 3-10.8"/><path d="m710 60.3928756v67.6880184" transform="matrix(-1 0 0 1 1419 0)"/><path d="m707 117.280894 3 10.8 3-10.8"/></g><path d="m494 328v66.647757" stroke="#4a90e2"/><path d="m491 383.847757 3 10.8 3-10.8" stroke="#4a90e2"/><path d="m494 463v66.647757" stroke="#22e0c7"/><path d="m491 518.847757 3 10.8 3-10.8" stroke="#22e0c7"/><path d="m639.067058 463v35.110987h-125.067058v31.53677" stroke="#22e0c7"/><path d="m511 518.847757 3 10.8 3-10.8" stroke="#22e0c7"/><path d="m619.067058 463v25.110987h-105.067058v-20.46323" stroke="#22e0c7"/><path d="m517 478.447757-3-10.8-3 10.8" stroke="#22e0c7"/><path d="m457.067058 463v25.110987h-105.067058v-20.46323" stroke="#22e0c7"/><path d="m355 478.447757-3-10.8-3 10.8" stroke="#22e0c7"/><path d="m604.067058 463v19h-75.067058v-15.483317" stroke="#22e0c7" transform="matrix(-1 0 0 1 1133.067058 0)"/><path d="m532 477.316683-3-10.8-3 10.8" stroke="#22e0c7"/><path d="m504 328v46.45979h138.208993v18.801126" stroke="#4a90e2"/><path d="m639.208993 382.460916 3 10.8 3-10.8" stroke="#4a90e2"/><path d="m344 328v46.45979h138.208993v18.801126" stroke="#4a90e2" transform="matrix(-1 0 0 1 826.208992 0)"/><path d="m479.208993 382.460916 3 10.8 3-10.8" stroke="#4a90e2"/><path d="m642.505539 328v32.630458h-403.505539v-29.024619" stroke="#4a90e2" transform="matrix(-1 0 0 1 881.505538 0)"/><path d="m242 342.405839-3-10.8-3 10.8" stroke="#4a90e2"/><path d="m663 668.616486 66.767027 66.767028-66.767027 66.767027 48.300472-66.767027z" fill="#d8d8d8" transform="matrix(0 1 -1 0 1431.767028 39)"/><g transform="translate(340 873)"><path d="m245 0h134v63h-134z" fill="#555"/><text fill="#fff" font-family="SourceSansPro-Regular, Source Sans Pro" font-size="14"><tspan x="271.732" y="35">Gateway Page</tspan></text><path d="m245 137h134v63h-134z" fill="#555"/><text fill="#fff" font-family="SourceSansPro-Regular, Source Sans Pro" font-size="14"><tspan x="262.8" y="172">ISA Product page</tspan></text><path d="m0 137h134v63h-134z" fill="#555"/><text fill="#fff" font-family="SourceSansPro-Regular, Source Sans Pro" font-size="14"><tspan x="32.612" y="163">Educational </tspan><tspan x="32.01" y="185">content hub</tspan></text><path d="m0 273h134v63h-134z" fill="#555"/><text fill="#fff" font-family="SourceSansPro-Regular, Source Sans Pro" font-size="14"><tspan x="32.612" y="299">Educational </tspan><tspan x="49.006" y="321">article</tspan></text><path d="m414 137h134v63h-134z" fill="#555"/><text fill="#fff" font-family="SourceSansPro-Regular, Source Sans Pro" font-size="14"><tspan x="431.219" y="172">GIA Product page</tspan></text><path d="m414 274h134v63h-134z" fill="#555"/><text fill="#fff" font-family="SourceSansPro-Regular, Source Sans Pro" font-size="14"><tspan x="445.149" y="309">Funds select</tspan></text><path d="m578 137h134v63h-134z" fill="#555"/><text fill="#fff" font-family="SourceSansPro-Regular, Source Sans Pro" font-size="14"><tspan x="610.857" y="160">ISA Transfer </tspan><tspan x="606.664" y="182">product page</tspan></text><g stroke="#555"><path d="m310 63.499375v73.000625"/><path d="m307 125.7 3 10.8 3-10.8"/><path d="m480 200.499375v73.000625" stroke-dasharray="4"/><path d="m477 262.7 3 10.8 3-10.8" stroke-dasharray="4"/><path d="m647.521577 198v20.83606h-147.521577v54.209306" stroke-dasharray="4"/><path d="m497 262.245366 3 10.8 3-10.8" stroke-dasharray="4"/><path d="m457.521577 198v20.83606h-147.521577v54.209306" stroke-dasharray="4" transform="matrix(-1 0 0 1 767.521576 0)"/><path d="m307 262.245366 3 10.8 3-10.8" stroke-dasharray="4"/><path d="m66 200.499375v73.000625"/><path d="m63 262.7 3 10.8 3-10.8"/><path d="m481 42c-68 0-102 0-102 0v95" transform="matrix(-1 0 0 1 860 0)"/><path d="m376 126.2 3 10.8 3-10.8"/><path d="m645 29c-177.333333 0-266 0-266 0v108" transform="matrix(-1 0 0 1 1024 0)"/><path d="m376 126.2 3 10.8 3-10.8"/><path d="m251 42c-122.666667 0-184 0-184 0v95"/><path d="m64 126.2 3 10.8 3-10.8"/></g></g></g></svg>