<svg width="495" height="238" viewBox="0 0 495 238" fill="none" xmlns="http://www.w3.org/2000/svg">
<path d="M127.774 55.0649C136.036 51.47 144.029 44.8754 144.347 34.8026C141.216 44.5922 131.201 49.4165 127.302 51.2945C126.474 51.693 125.922 51.9588 125.77 52.1113C124.9 52.9823 124.981 53.4275 125.384 54.54C125.787 55.6525 127.011 55.3968 127.774 55.0649Z" fill="black"/>
<path fill-rule="evenodd" clip-rule="evenodd" d="M132.849 41.1085C133.973 40.3435 134.973 39.5797 135.846 38.7752C137.19 35.8563 137.181 33.5483 136.455 31.5918C135.67 29.4744 133.982 27.589 131.749 25.7395C130.173 24.4346 128.425 23.2232 126.635 21.9825C125.873 21.4543 125.103 20.9203 124.335 20.372C121.84 18.589 119.392 16.6625 117.736 14.4025C117.6 14.2709 117.471 14.1352 117.35 13.9955C116.69 13.2351 116.186 12.2624 116.244 11.1411C116.287 10.3162 116.473 9.51723 116.898 8.84343C117.338 8.14363 117.989 7.655 118.8 7.41476C120.561 6.89333 123.943 9.57271 123.943 9.57271C123.943 9.57271 121.512 9.23102 119.519 9.82124C119.273 9.89396 119.127 10.0139 119.017 10.1885C118.891 10.389 118.773 10.73 118.745 11.2809C118.732 11.5354 118.836 11.8928 119.236 12.3535C119.635 12.8135 120.254 13.283 121.038 13.7072C122.618 14.5618 124.599 15.089 126.09 15.0849C133.831 15.0636 139.376 18.693 142.52 22.202C145.673 25.0937 148.822 28.8429 150.527 32.5297C155.82 43.9707 153.649 56.7125 145.98 64.1182L239.14 216.497L243.99 230.082L233.407 220.575L137.707 69.1821C128.188 72.6531 125.187 67.0384 121.062 59.3224L121.061 59.3191C120.653 58.5571 120.235 57.7747 119.798 56.9784C117.876 53.4732 117.302 50.7653 121.307 47.9017L108.876 27.7747L108.853 27.7296C108.515 27.0688 108.283 26.3413 108.181 25.5679C108.073 24.7536 108.118 23.9549 108.293 23.2006L107.298 21.3638L107.291 21.3501C107.052 20.8837 106.889 20.3706 106.817 19.826C106.48 17.2688 108.27 14.9264 110.821 14.5988C112.577 14.3733 114.23 15.162 115.2 16.5032L115.23 16.5452L116.286 18.2922C117.819 18.6699 119.165 19.5873 120.083 20.8538L120.106 20.8867L124.103 27.2298C124.136 27.2731 124.169 27.3168 124.201 27.361L124.225 27.3939L124.212 27.4025L132.419 40.4274C132.533 40.561 132.642 40.6993 132.745 40.842L132.769 40.8749L132.722 40.9072L132.849 41.1085ZM130.78 61.7972C131.376 61.5611 131.97 61.3071 132.557 61.035L134.003 63.3221C133.539 63.5424 133.129 63.7294 132.788 63.8852C132.21 64.1487 131.828 64.323 131.711 64.4185C130.915 65.072 130.98 65.3972 131.322 66.2066C131.665 67.0159 132.769 66.8078 133.46 66.5515C134.143 66.2983 134.83 66.0196 135.515 65.7147L136.33 67.0032C134.7 67.5498 133.404 67.7464 132.359 67.7202C130.901 67.6836 129.789 67.2114 128.769 66.368C127.681 65.4683 126.66 64.1133 125.541 62.2466C124.799 61.0078 124.09 59.6811 123.309 58.2201C122.895 57.4458 122.461 56.6338 121.992 55.7771C120.799 53.6027 120.683 52.6271 120.923 51.957C121.199 51.1828 122.298 49.8237 126.296 47.9796L126.403 47.9303L126.505 47.8711C126.921 47.6293 127.331 47.3914 127.736 47.1568C130.243 45.7048 132.529 44.3801 134.462 43.0484C135.7 42.196 136.848 41.3047 137.869 40.3198L137.885 40.3275L137.894 40.309L137.906 40.2845C138.743 39.4738 139.494 38.5995 140.14 37.6315C142.207 34.5306 142.953 30.8355 142.614 25.967L142.727 25.9008C144.99 28.2609 147.051 30.973 148.256 33.5772C153.08 44.0028 151.127 55.2555 144.625 61.9099L143.654 60.3273C146.772 57.242 148.914 53.2055 148.867 48.082C147.703 52.3396 145.104 55.6118 142.271 58.0727L140.68 55.4802C144.325 51.8129 146.777 46.8908 146.707 40.5135C143.855 51.847 133.551 56.8701 129.985 58.5809C129.36 58.8803 128.944 59.08 128.813 59.1967C127.934 59.98 128.009 60.3745 128.399 61.358C128.788 62.3414 130.015 62.1006 130.78 61.7972ZM138.802 30.7267C139.127 31.6038 139.335 32.5154 139.413 33.4653C140.294 30.86 140.433 27.5924 139.785 23.1212C139.776 23.0602 139.767 22.9991 139.758 22.9377C136.913 20.1991 132.324 17.5769 126.107 17.594C125.633 17.5953 125.134 17.5579 124.624 17.486C125.001 17.7671 125.388 18.0485 125.783 18.331C126.484 18.8317 127.214 19.338 127.955 19.8514L127.956 19.852C129.785 21.1196 131.676 22.4307 133.339 23.8081C135.69 25.7548 137.786 27.9866 138.802 30.7267ZM126.487 44.9769C128.031 44.0823 129.452 43.259 130.746 42.4624L130.297 41.7497C128.629 39.621 127.157 38.7539 123.07 39.6875C123.104 39.6585 123.138 39.6298 123.172 39.6015C124.098 38.8325 125.247 38.3089 126.53 38.1441C127.031 38.0797 127.527 38.0735 128.01 38.1201L126.042 34.9975C124.284 32.6752 122.864 31.6959 118.61 32.6677C118.626 32.6536 118.642 32.6395 118.659 32.6256C118.676 32.6108 118.694 32.5962 118.711 32.5817C119.638 31.8127 120.786 31.2891 122.069 31.1243C122.583 31.0583 123.094 31.056 123.594 31.1122L122.036 28.64C120.242 26.2433 118.843 25.2204 114.526 26.2065C114.559 26.1775 114.593 26.1488 114.627 26.1205C115.554 25.3515 116.702 24.8279 117.985 24.6631C118.505 24.5963 119.019 24.5921 119.518 24.6445L118.036 22.2912C117.173 21.1232 115.726 20.4481 114.195 20.6447C111.947 20.9334 110.366 22.9949 110.663 25.2491C110.725 25.7165 110.862 26.1531 111.059 26.5499L123.438 46.5942C123.987 46.2993 124.587 46.0015 125.241 45.6996C125.665 45.4532 126.08 45.2126 126.487 44.9769ZM109.655 20.4653C110.573 19.3647 111.849 18.5604 113.336 18.2459L113.147 17.9325C112.691 17.3297 111.941 16.9859 111.15 17.0875C109.974 17.2385 109.143 18.3198 109.299 19.5072C109.333 19.7582 109.406 19.9912 109.512 20.2019L109.655 20.4653ZM238.5 216.787L139.142 56.2639L133.968 59.4092L234.5 219.287L241.423 225.234L238.5 216.787Z" fill="black"/>
<mask id="mask0" mask-type="alpha" maskUnits="userSpaceOnUse" x="0" y="74" width="495" height="91">
<path d="M140 78.7866H0V164.787H213H494.5V74.7866H170.5L157 81.7866L173 108.787L167 113.787L154.5 93.7866L151 95.7866L140 78.7866Z" fill="#C4C4C4"/>
</mask>
<g mask="url(#mask0)">
<path fill-rule="evenodd" clip-rule="evenodd" d="M346.501 110.22C346.921 109.272 347.452 108.38 348.079 107.549C348.142 107.465 348.207 107.382 348.272 107.299C351.484 103.23 356.997 100.727 362.652 100.727C373.703 100.727 381.353 110.54 381.353 125.58C381.353 146.06 368.071 158.753 350.114 158.753C343.526 158.753 336.088 157.047 330.669 154.06V93.7933C330.669 89.863 329.715 87.849 326.932 86.929C326.29 86.7166 325.549 86.5624 324.701 86.4565C324.637 86.4485 324.572 86.4408 324.506 86.4333V85.7933L346.501 79.2866V110.22ZM348.272 109.602C348.05 109.791 347.841 109.997 347.646 110.22C347.541 110.34 347.44 110.466 347.343 110.596C347.305 110.647 347.267 110.699 347.23 110.753C346.942 111.168 346.696 111.631 346.501 112.14V153.1C347.351 154.167 349.158 155.767 352.664 155.767C359.677 155.767 364.352 147.66 364.352 131.447C364.352 115.233 359.996 107.98 353.089 107.98C351.693 107.98 350.391 108.285 349.292 108.896C348.929 109.097 348.587 109.333 348.272 109.602ZM295.89 107.233L317.885 101.046V149.473C317.885 152.46 318.926 154.244 320.972 155.375C321.849 155.86 322.911 156.225 324.154 156.513V157.153H295.89V156.513C297.133 156.225 298.195 155.86 299.072 155.375C301.118 154.244 302.159 152.46 302.159 149.473V115.553C302.159 111.185 301.237 109.198 298.509 108.343C297.818 108.126 297.011 107.982 296.074 107.89C296.013 107.884 295.952 107.879 295.89 107.873V107.233ZM309.385 97.3132C314.379 97.3132 318.098 93.4732 318.098 88.5665C318.098 83.6598 314.379 79.8198 309.385 79.8198C304.391 79.8198 300.565 83.6598 300.565 88.5665C300.565 93.4732 304.391 97.3132 309.385 97.3132ZM209.203 132.834L210.054 133.047L210.044 133.093C209.653 134.968 209.191 136.743 208.66 138.418C204.268 152.255 195.084 159.287 181.258 159.287C161.282 159.287 148 143.927 148 120.78C148 96.9935 163.195 80.3535 184.977 80.3535C193.478 80.3535 202.509 82.3802 209.735 85.9002L203.784 110.54L203.041 110.434L203.034 110.358C202.945 109.373 202.833 108.419 202.698 107.495C200.697 93.8547 193.606 86.8602 181.683 86.8602C169.464 86.8602 161.813 96.1402 161.813 110.754C161.813 131.02 173.501 144.994 190.502 144.994C198.55 144.994 203.877 142.652 207.039 137.666C207.922 136.274 208.636 134.677 209.193 132.867L209.203 132.834ZM241.707 151.608C243.058 155.986 246.603 158.753 252.275 158.753C258.312 158.753 263.158 155.803 265.736 150.015C266.116 149.161 266.447 148.245 266.725 147.268C266.87 146.76 267 146.236 267.116 145.695C267.128 145.639 267.139 145.583 267.151 145.527L266.195 145.42C265.708 147.062 265.02 148.223 264.236 149.021C263.136 150.14 261.848 150.54 260.669 150.54C258.332 150.54 256.525 148.62 256.525 144.887V123.447C256.525 109.793 250.363 100.727 236.23 100.727C225.765 100.727 218.408 106.078 215.274 114.981C214.656 116.736 214.202 118.629 213.92 120.647L213.917 120.673L214.767 120.887L214.792 120.796C215.351 118.834 216.052 117.153 216.888 115.73C219.572 111.167 223.653 109.26 228.899 109.26C237.824 109.26 240.799 114.913 240.799 123.127V125.367L231.98 127.18C219.761 129.74 212.11 135.927 212.11 145.42C212.11 152.46 217.211 158.753 226.349 158.753C232.844 158.753 237.503 155.494 239.811 151.401C239.995 151.074 240.164 150.742 240.318 150.405C240.455 150.106 240.58 149.804 240.692 149.5L240.717 149.434C240.827 149.129 240.926 148.822 241.012 148.513L241.224 149.367L241.231 149.413C241.334 150.182 241.493 150.915 241.707 151.608ZM238.86 149.319C239.247 149.007 239.6 148.638 239.92 148.206C240.246 147.769 240.538 147.268 240.799 146.7V128.033L236.655 128.78C228.368 130.487 226.774 135.713 226.774 140.94C226.774 146.38 229.43 150.647 234.53 150.647C236.295 150.647 237.724 150.234 238.86 149.319ZM266.88 85.7933L288.875 79.2866V149.473C288.875 152.46 289.917 154.244 291.963 155.376C292.84 155.86 293.901 156.225 295.144 156.513V157.153H266.88V156.513C268.124 156.225 269.185 155.86 270.062 155.376C272.108 154.244 273.149 152.46 273.149 149.473V93.7933C273.149 89.8606 272.126 87.8466 269.312 86.9273C268.664 86.7157 267.922 86.5621 267.075 86.4565C267.011 86.4485 266.946 86.4408 266.88 86.4333V85.7933ZM419.552 156.713H441.547V156.073C440.283 155.773 439.197 155.431 438.3 154.936C436.331 153.848 435.278 152.024 435.278 148.287V100.5L414.345 104.02V104.66C414.382 104.664 414.418 104.668 414.454 104.672C415.504 104.791 416.356 105.008 417.041 105.369C418.933 106.368 419.552 108.469 419.552 112.66V145.62C419.345 146.035 419.108 146.428 418.841 146.796C418.807 146.842 418.773 146.888 418.738 146.933C418.701 146.983 418.662 147.033 418.623 147.081C418.586 147.128 418.548 147.174 418.51 147.22C418.284 147.491 418.041 147.745 417.781 147.981C417.555 148.187 417.316 148.379 417.066 148.557C415.85 149.419 414.355 149.936 412.645 149.993C407.864 149.993 404.995 146.793 404.995 140.607V100.5L383 104.233V104.873L383.109 104.883C384.315 104.997 385.307 105.188 386.116 105.507C388.46 106.433 389.269 108.439 389.269 112.767V141.033C389.269 153.193 395.326 158.313 404.57 158.313C410.44 158.313 415.053 155.191 417.781 150.886C418.018 150.512 418.24 150.13 418.448 149.74C418.88 148.929 419.25 148.085 419.552 147.22V156.713ZM464.216 124.393H463.685V100.5L442.327 106.687V107.327C442.391 107.332 442.454 107.339 442.516 107.345C443.388 107.435 444.149 107.587 444.81 107.818C447.585 108.784 448.596 111.123 448.596 115.967V149.033C448.596 152.02 447.555 153.804 445.509 154.936C444.632 155.42 443.57 155.785 442.327 156.073V156.713H472.716V156.073C470.745 155.817 469.138 155.472 467.876 154.936C465.467 153.91 464.322 152.184 464.322 149.033V132.607C464.322 130.163 464.458 128.029 464.718 126.171C464.803 125.563 464.901 124.984 465.012 124.433L465.02 124.393C465.149 123.764 465.294 123.172 465.456 122.615C465.708 121.745 466.001 120.962 466.331 120.258C468.305 116.05 471.625 114.687 475.798 114.687C477.638 114.687 479.02 114.84 480.083 115.147C480.555 115.284 480.964 115.45 481.323 115.647H481.854V100.287H480.686C480.483 100.287 480.283 100.29 480.083 100.297C473.078 100.531 467.8 104.901 465.456 114.908C465.106 116.401 464.821 118.02 464.606 119.769C464.428 121.22 464.297 122.76 464.216 124.393Z" stroke="black" stroke-width="1.5"/>
<path fill-rule="evenodd" clip-rule="evenodd" d="M75.7417 82.2866H58.3997V82.9283C65.0703 84.4255 68.4585 87.2061 68.4585 95.3338V128.38C68.4585 143.78 62.4232 151.801 50.6703 151.801C38.9175 151.801 32.7763 143.673 32.7763 128.487V94.2644C32.7763 86.6713 35.4234 84.4255 41.5645 82.9283V82.2866H8V82.9283C13.1882 84.2116 15.2 86.2436 15.2 93.195V128.487C15.2 148.699 25.6822 159.287 44.5292 159.287C62.5291 159.287 71.8467 148.485 71.8467 130.519V94.2644C71.8467 87.6502 73.7749 84.9311 77.6313 83.4917C81.3329 84.831 84.7915 87.5947 88.871 93.7297L108.671 123.353L92.5769 144.101C86.9651 151.373 81.7769 154.902 75.0005 156.506V157.148H100.306V156.506C96.2827 155.437 94.271 153.512 94.271 150.41C94.271 148.592 95.3298 146.56 97.8709 143.138L110.789 126.455L120.106 140.464C123.494 145.491 124.765 147.951 124.765 150.303C124.765 153.405 122.965 155.437 119.153 156.506V157.148H156V156.506C151.129 155.223 147.847 152.121 143.4 145.384L123.494 115.119L137.894 96.0825C144.035 87.9547 148.377 84.1047 153.247 82.9283V82.2866H130.059V82.9283C134.506 83.463 136.73 85.388 136.73 88.8102C136.73 91.163 135.353 94.1575 131.753 98.7561L121.483 112.124L112.589 98.6491C109.2 93.5158 107.612 90.7352 107.612 88.3825C107.612 85.2811 109.518 83.463 113.647 82.9283V82.2866H79.4702H75.7417ZM210.054 133.047L209.203 132.834L209.193 132.867C208.636 134.677 207.922 136.274 207.039 137.666C203.877 142.653 198.55 144.994 190.502 144.994C173.501 144.994 161.813 131.02 161.813 110.754C161.813 107.072 162.299 103.728 163.221 100.787L157 93.1772C151.289 100.194 148 109.714 148 120.78C148 143.927 161.282 159.287 181.258 159.287C195.084 159.287 204.268 152.255 208.66 138.418C209.191 136.743 209.653 134.968 210.044 133.093L210.054 133.047Z" fill="black"/>
</g>
</svg>
