<svg width="495" height="238" viewBox="0 0 495 238" fill="none" xmlns="http://www.w3.org/2000/svg">
<g id="rapier">
<path d="M225.216 194.523C225.216 194.523 192.793 137.78 170.5 102C153.804 75.2036 125.858 34 125.858 34L225.216 194.523Z" fill="black"/>
<path d="M203.5 167.5C203.5 167.5 190.636 145.063 166.5 110.5C148.423 84.6146 136 68.0001 136 68.0001L203.5 167.5Z" fill="black"/>
</g>
<mask id="mask0" mask-type="alpha" maskUnits="userSpaceOnUse" x="0" y="74" width="495" height="91">
<path d="M140 78.7866H0V164.787H213H494.5V74.7866H170.5L157 81.7866L173 108.787L167 113.787L154.5 93.7866L151 95.7866L140 78.7866Z" fill="#C4C4C4"/>
</mask>
<g id="lettering" mask="url(#mask0)">
<path id="outlined" stroke="black" vector-effect="non-scaling-stroke" stroke-width="1px" fill-rule="evenodd" clip-rule="evenodd" d="M346.501 110.22C346.921 109.272 347.452 108.38 348.079 107.549C348.142 107.465 348.207 107.382 348.272 107.299C351.484 103.23 356.997 100.727 362.652 100.727C373.703 100.727 381.353 110.54 381.353 125.58C381.353 146.06 368.071 158.753 350.114 158.753C343.526 158.753 336.088 157.047 330.669 154.06V93.7933C330.669 89.863 329.715 87.849 326.932 86.929C326.29 86.7166 325.549 86.5624 324.701 86.4565C324.637 86.4485 324.572 86.4408 324.506 86.4333V85.7933L346.501 79.2866V110.22ZM348.272 109.602C348.05 109.791 347.841 109.997 347.646 110.22C347.541 110.34 347.44 110.466 347.343 110.596C347.305 110.647 347.267 110.699 347.23 110.753C346.942 111.168 346.696 111.631 346.501 112.14V153.1C347.351 154.167 349.158 155.767 352.664 155.767C359.677 155.767 364.352 147.66 364.352 131.447C364.352 115.233 359.996 107.98 353.089 107.98C351.693 107.98 350.391 108.285 349.292 108.896C348.929 109.097 348.587 109.333 348.272 109.602ZM295.89 107.233L317.885 101.046V149.473C317.885 152.46 318.926 154.244 320.972 155.375C321.849 155.86 322.911 156.225 324.154 156.513V157.153H295.89V156.513C297.133 156.225 298.195 155.86 299.072 155.375C301.118 154.244 302.159 152.46 302.159 149.473V115.553C302.159 111.185 301.237 109.198 298.509 108.343C297.818 108.126 297.011 107.982 296.074 107.89C296.013 107.884 295.952 107.879 295.89 107.873V107.233ZM309.385 97.3132C314.379 97.3132 318.098 93.4732 318.098 88.5665C318.098 83.6598 314.379 79.8198 309.385 79.8198C304.391 79.8198 300.565 83.6598 300.565 88.5665C300.565 93.4732 304.391 97.3132 309.385 97.3132ZM209.203 132.834L210.054 133.047L210.044 133.093C209.653 134.968 209.191 136.743 208.66 138.418C204.268 152.255 195.084 159.287 181.258 159.287C161.282 159.287 148 143.927 148 120.78C148 96.9935 163.195 80.3535 184.977 80.3535C193.478 80.3535 202.509 82.3802 209.735 85.9002L203.784 110.54L203.041 110.434L203.034 110.358C202.945 109.373 202.833 108.419 202.698 107.495C200.697 93.8547 193.606 86.8602 181.683 86.8602C169.464 86.8602 161.813 96.1402 161.813 110.754C161.813 131.02 173.501 144.994 190.502 144.994C198.55 144.994 203.877 142.652 207.039 137.666C207.922 136.274 208.636 134.677 209.193 132.867L209.203 132.834ZM241.707 151.608C243.058 155.986 246.603 158.753 252.275 158.753C258.312 158.753 263.158 155.803 265.736 150.015C266.116 149.161 266.447 148.245 266.725 147.268C266.87 146.76 267 146.236 267.116 145.695C267.128 145.639 267.139 145.583 267.151 145.527L266.195 145.42C265.708 147.062 265.02 148.223 264.236 149.021C263.136 150.14 261.848 150.54 260.669 150.54C258.332 150.54 256.525 148.62 256.525 144.887V123.447C256.525 109.793 250.363 100.727 236.23 100.727C225.765 100.727 218.408 106.078 215.274 114.981C214.656 116.736 214.202 118.629 213.92 120.647L213.917 120.673L214.767 120.887L214.792 120.796C215.351 118.834 216.052 117.153 216.888 115.73C219.572 111.167 223.653 109.26 228.899 109.26C237.824 109.26 240.799 114.913 240.799 123.127V125.367L231.98 127.18C219.761 129.74 212.11 135.927 212.11 145.42C212.11 152.46 217.211 158.753 226.349 158.753C232.844 158.753 237.503 155.494 239.811 151.401C239.995 151.074 240.164 150.742 240.318 150.405C240.455 150.106 240.58 149.804 240.692 149.5L240.717 149.434C240.827 149.129 240.926 148.822 241.012 148.513L241.224 149.367L241.231 149.413C241.334 150.182 241.493 150.915 241.707 151.608ZM238.86 149.319C239.247 149.007 239.6 148.638 239.92 148.206C240.246 147.769 240.538 147.268 240.799 146.7V128.033L236.655 128.78C228.368 130.487 226.774 135.713 226.774 140.94C226.774 146.38 229.43 150.647 234.53 150.647C236.295 150.647 237.724 150.234 238.86 149.319ZM266.88 85.7933L288.875 79.2866V149.473C288.875 152.46 289.917 154.244 291.963 155.376C292.84 155.86 293.901 156.225 295.144 156.513V157.153H266.88V156.513C268.124 156.225 269.185 155.86 270.062 155.376C272.108 154.244 273.149 152.46 273.149 149.473V93.7933C273.149 89.8606 272.126 87.8466 269.312 86.9273C268.664 86.7157 267.922 86.5621 267.075 86.4565C267.011 86.4485 266.946 86.4408 266.88 86.4333V85.7933ZM419.552 156.713H441.547V156.073C440.283 155.773 439.197 155.431 438.3 154.936C436.331 153.848 435.278 152.024 435.278 148.287V100.5L414.345 104.02V104.66C414.382 104.664 414.418 104.668 414.454 104.672C415.504 104.791 416.356 105.008 417.041 105.369C418.933 106.368 419.552 108.469 419.552 112.66V145.62C419.345 146.035 419.108 146.428 418.841 146.796C418.807 146.842 418.773 146.888 418.738 146.933C418.701 146.983 418.662 147.033 418.623 147.081C418.586 147.128 418.548 147.174 418.51 147.22C418.284 147.491 418.041 147.745 417.781 147.981C417.555 148.187 417.316 148.379 417.066 148.557C415.85 149.419 414.355 149.936 412.645 149.993C407.864 149.993 404.995 146.793 404.995 140.607V100.5L383 104.233V104.873L383.109 104.883C384.315 104.997 385.307 105.188 386.116 105.507C388.46 106.433 389.269 108.439 389.269 112.767V141.033C389.269 153.193 395.326 158.313 404.57 158.313C410.44 158.313 415.053 155.191 417.781 150.886C418.018 150.512 418.24 150.13 418.448 149.74C418.88 148.929 419.25 148.085 419.552 147.22V156.713ZM464.216 124.393H463.685V100.5L442.327 106.687V107.327C442.391 107.332 442.454 107.339 442.516 107.345C443.388 107.435 444.149 107.587 444.81 107.818C447.585 108.784 448.596 111.123 448.596 115.967V149.033C448.596 152.02 447.555 153.804 445.509 154.936C444.632 155.42 443.57 155.785 442.327 156.073V156.713H472.716V156.073C470.745 155.817 469.138 155.472 467.876 154.936C465.467 153.91 464.322 152.184 464.322 149.033V132.607C464.322 130.163 464.458 128.029 464.718 126.171C464.803 125.563 464.901 124.984 465.012 124.433L465.02 124.393C465.149 123.764 465.294 123.172 465.456 122.615C465.708 121.745 466.001 120.962 466.331 120.258C468.305 116.05 471.625 114.687 475.798 114.687C477.638 114.687 479.02 114.84 480.083 115.147C480.555 115.284 480.964 115.45 481.323 115.647H481.854V100.287H480.686C480.483 100.287 480.283 100.29 480.083 100.297C473.078 100.531 467.8 104.901 465.456 114.908C465.106 116.401 464.821 118.02 464.606 119.769C464.428 121.22 464.297 122.76 464.216 124.393Z"/>
<path id="filled"  fill="black" fill-rule="evenodd" clip-rule="evenodd" d="M75.7417 82.2866H58.3997V82.9283C65.0703 84.4255 68.4585 87.2061 68.4585 95.3338V128.38C68.4585 143.78 62.4232 151.801 50.6703 151.801C38.9175 151.801 32.7763 143.673 32.7763 128.487V94.2644C32.7763 86.6713 35.4234 84.4255 41.5645 82.9283V82.2866H8V82.9283C13.1882 84.2116 15.2 86.2436 15.2 93.195V128.487C15.2 148.699 25.6822 159.287 44.5292 159.287C62.5291 159.287 71.8467 148.485 71.8467 130.519V94.2644C71.8467 87.6502 73.7749 84.9311 77.6313 83.4917C81.3329 84.831 84.7915 87.5947 88.871 93.7297L108.671 123.353L92.5769 144.101C86.9651 151.373 81.7769 154.902 75.0005 156.506V157.148H100.306V156.506C96.2827 155.437 94.271 153.512 94.271 150.41C94.271 148.592 95.3298 146.56 97.8709 143.138L110.789 126.455L120.106 140.464C123.494 145.491 124.765 147.951 124.765 150.303C124.765 153.405 122.965 155.437 119.153 156.506V157.148H156V156.506C151.129 155.223 147.847 152.121 143.4 145.384L123.494 115.119L137.894 96.0825C144.035 87.9547 148.377 84.1047 153.247 82.9283V82.2866H130.059V82.9283C134.506 83.463 136.73 85.388 136.73 88.8102C136.73 91.163 135.353 94.1575 131.753 98.7561L121.483 112.124L112.589 98.6491C109.2 93.5158 107.612 90.7352 107.612 88.3825C107.612 85.2811 109.518 83.463 113.647 82.9283V82.2866H79.4702H75.7417ZM210.054 133.047L209.203 132.834L209.193 132.867C208.636 134.677 207.922 136.274 207.039 137.666C203.877 142.653 198.55 144.994 190.502 144.994C173.501 144.994 161.813 131.02 161.813 110.754C161.813 107.072 162.299 103.728 163.221 100.787L157 93.1772C151.289 100.194 148 109.714 148 120.78C148 143.927 161.282 159.287 181.258 159.287C195.084 159.287 204.268 152.255 208.66 138.418C209.191 136.743 209.653 134.968 210.044 133.093L210.054 133.047Z"/>
</g>
</svg>