<svg width="495" height="258" viewBox="0 0 495 258" fill="none" xmlns="http://www.w3.org/2000/svg">
<path d="M127.774 55.7783C136.036 52.1833 144.029 45.5888 144.347 35.516C141.216 45.3056 131.201 50.1298 127.302 52.0078C126.474 52.4063 125.922 52.6722 125.77 52.8247C124.9 53.6957 124.981 54.1409 125.384 55.2534C125.787 56.3659 127.011 56.1102 127.774 55.7783Z" fill="black"/>
<path fill-rule="evenodd" clip-rule="evenodd" d="M132.849 41.8219C133.973 41.0569 134.973 40.2931 135.846 39.4885C137.19 36.5697 137.181 34.2617 136.455 32.3052C135.67 30.1878 133.982 28.3023 131.749 26.4529C130.173 25.1479 128.425 23.9366 126.635 22.6959C125.873 22.1676 125.103 21.6337 124.335 21.0853C121.84 19.3024 119.392 17.3759 117.736 15.1159C117.6 14.9842 117.471 14.8486 117.35 14.7089C116.69 13.9485 116.186 12.9758 116.244 11.8545C116.287 11.0296 116.473 10.2306 116.898 9.55681C117.338 8.85701 117.989 8.36838 118.8 8.12814C120.561 7.60671 123.943 10.2861 123.943 10.2861C123.943 10.2861 121.512 9.9444 119.519 10.5346C119.273 10.6073 119.127 10.7273 119.017 10.9018C118.891 11.1024 118.773 11.4434 118.745 11.9943C118.732 12.2487 118.836 12.6062 119.236 13.0669C119.635 13.5269 120.254 13.9963 121.038 14.4206C122.618 15.2752 124.599 15.8024 126.09 15.7983C133.831 15.777 139.376 19.4064 142.52 22.9154C145.673 25.8071 148.822 29.5563 150.527 33.2431C155.82 44.684 153.649 57.4259 145.98 64.8316L251.14 236.211L255.991 249.796L245.407 240.288L137.707 69.8955C128.188 73.3665 125.187 67.7518 121.062 60.0357L121.061 60.0325C120.653 59.2705 120.235 58.488 119.798 57.6918C117.876 54.1866 117.302 51.4787 121.307 48.6151L108.876 28.4881L108.853 28.4429C108.515 27.7822 108.283 27.0546 108.181 26.2813C108.073 25.467 108.118 24.6683 108.293 23.914L107.298 22.0772L107.291 22.0635C107.052 21.5971 106.889 21.0839 106.817 20.5394C106.48 17.9822 108.27 15.6398 110.821 15.3121C112.577 15.0867 114.23 15.8754 115.2 17.2165L115.23 17.2585L116.286 19.0056C117.819 19.3833 119.165 20.3007 120.083 21.5672L120.106 21.6001L124.103 27.9432C124.136 27.9865 124.169 28.0302 124.201 28.0744L124.225 28.1073L124.212 28.1158L132.419 41.1408C132.533 41.2744 132.642 41.4126 132.745 41.5553L132.769 41.5883L132.722 41.6206L132.849 41.8219ZM130.78 62.5106C131.376 62.2744 131.97 62.0205 132.557 61.7484L134.003 64.0355C133.539 64.2558 133.129 64.4428 132.788 64.5986C132.21 64.8621 131.828 65.0364 131.711 65.1319C130.915 65.7854 130.98 66.1106 131.322 66.9199C131.665 67.7293 132.769 67.5212 133.46 67.2649C134.143 67.0117 134.83 66.733 135.515 66.4281L136.33 67.7166C134.7 68.2631 133.404 68.4598 132.359 68.4336C130.901 68.397 129.789 67.9248 128.769 67.0814C127.681 66.1817 126.66 64.8267 125.541 62.96C124.799 61.7212 124.09 60.3945 123.309 58.9335C122.895 58.1592 122.461 57.3472 121.992 56.4905C120.799 54.3161 120.683 53.3405 120.923 52.6703C121.199 51.8962 122.298 50.537 126.296 48.693L126.403 48.6437L126.505 48.5845C126.921 48.3427 127.331 48.1047 127.736 47.8701C130.243 46.4182 132.529 45.0935 134.462 43.7617C135.7 42.9094 136.848 42.0181 137.869 41.0332L137.885 41.0409L137.894 41.0224L137.906 40.9978C138.743 40.1872 139.494 39.3129 140.14 38.3449C142.207 35.2439 142.953 31.5489 142.614 26.6804L142.727 26.6142C144.99 28.9742 147.051 31.6864 148.256 34.2906C153.08 44.7162 151.127 55.9689 144.625 62.6233L143.654 61.0407C146.772 57.9554 148.914 53.9188 148.867 48.7954C147.703 53.053 145.104 56.3252 142.271 58.7861L140.68 56.1935C144.325 52.5263 146.777 47.6042 146.707 41.2269C143.855 52.5604 133.551 57.5834 129.985 59.2942C129.36 59.5937 128.944 59.7933 128.813 59.91C127.934 60.6934 128.009 61.0879 128.399 62.0713C128.788 63.0548 130.015 62.8139 130.78 62.5106ZM138.802 31.4401C139.127 32.3172 139.335 33.2288 139.413 34.1787C140.294 31.5734 140.433 28.3058 139.785 23.8345C139.776 23.7736 139.767 23.7125 139.758 23.6511C136.913 20.9124 132.324 18.2903 126.107 18.3074C125.633 18.3087 125.134 18.2713 124.624 18.1994C125.001 18.4805 125.388 18.7619 125.783 19.0444C126.484 19.5451 127.214 20.0513 127.955 20.5648L127.956 20.5654C129.785 21.833 131.676 23.1441 133.339 24.5214C135.69 26.4681 137.786 28.6999 138.802 31.4401ZM126.487 45.6903C128.031 44.7957 129.452 43.9724 130.746 43.1758L130.297 42.4631C128.629 40.3344 127.157 39.4673 123.07 40.4009C123.104 40.3719 123.138 40.3432 123.172 40.3149C124.098 39.5459 125.247 39.0223 126.53 38.8575C127.031 38.7931 127.527 38.7868 128.01 38.8335L126.042 35.7109C124.284 33.3885 122.864 32.4093 118.61 33.381C118.626 33.3669 118.642 33.3529 118.659 33.3389C118.676 33.3242 118.694 33.3096 118.711 33.2951C119.638 32.5261 120.786 32.0025 122.069 31.8376C122.583 31.7717 123.094 31.7694 123.594 31.8256L122.036 29.3534C120.242 26.9567 118.843 25.9338 114.526 26.9199C114.559 26.8909 114.593 26.8622 114.627 26.8339C115.554 26.0649 116.702 25.5413 117.985 25.3765C118.505 25.3097 119.019 25.3055 119.518 25.3579L118.036 23.0046C117.173 21.8366 115.726 21.1615 114.195 21.358C111.947 21.6468 110.366 23.7083 110.663 25.9625C110.725 26.4299 110.862 26.8665 111.059 27.2633L123.438 47.3076C123.987 47.0127 124.587 46.7148 125.241 46.413C125.665 46.1666 126.08 45.926 126.487 45.6903ZM109.655 21.1787C110.573 20.0781 111.849 19.2737 113.336 18.9593L113.147 18.6459C112.691 18.0431 111.941 17.6993 111.15 17.8009C109.974 17.9519 109.143 19.0332 109.299 20.2206C109.333 20.4716 109.406 20.7046 109.512 20.9153L109.655 21.1787ZM250.5 236.5L139.142 56.9773L133.968 60.1226L246.5 239L253.423 244.948L250.5 236.5Z" fill="black"/>
<mask id="mask0" mask-type="alpha" maskUnits="userSpaceOnUse" x="0" y="75" width="495" height="91">
<path d="M140 79.5H0V165.5H213H494.5V75.5H170.5L157 82.5L173 109.5L167 114.5L154.5 94.5L151 96.5L140 79.5Z" fill="#C4C4C4"/>
</mask>
<g mask="url(#mask0)">
<path d="M143.4 146.097L123.494 115.832L137.894 96.7958C144.035 88.6681 148.377 84.8181 153.247 83.6417V83H130.059V83.6417C134.506 84.1764 136.73 86.1014 136.73 89.5236C136.73 91.8764 135.353 94.8708 131.753 99.4694L121.483 112.837L112.589 99.3625C109.2 94.2292 107.612 91.4486 107.612 89.0958C107.612 85.9944 109.518 84.1764 113.647 83.6417V83H75.7417V83.6417C80.1887 84.7111 84.1063 87.2778 88.871 94.4431L108.671 124.067L92.5769 144.814C86.9651 152.086 81.7769 155.615 75.0005 157.219V157.861H100.306V157.219C96.2827 156.15 94.271 154.225 94.271 151.124C94.271 149.306 95.3298 147.274 97.8709 143.851L110.789 127.168L120.106 141.178C123.494 146.204 124.765 148.664 124.765 151.017C124.765 154.118 122.965 156.15 119.153 157.219V157.861H156V157.219C151.129 155.936 147.847 152.835 143.4 146.097Z" fill="black"/>
<path d="M79.4702 83H58.3997V83.6417C65.0702 85.1389 68.4585 87.9194 68.4585 96.0472V129.093C68.4585 144.493 62.4232 152.514 50.6703 152.514C38.9175 152.514 32.7763 144.386 32.7763 129.2V94.9778C32.7763 87.3847 35.4234 85.1389 41.5645 83.6417V83H8V83.6417C13.1882 84.925 15.2 86.9569 15.2 93.9083V129.2C15.2 149.412 25.6822 160 44.5292 160C62.5291 160 71.8467 149.199 71.8467 131.232V94.9778C71.8467 87.3847 74.3878 84.925 79.4702 83.6417V83Z" fill="black"/>
<path fill-rule="evenodd" clip-rule="evenodd" d="M209.203 133.547L210.054 133.76C210.05 133.776 210.047 133.791 210.044 133.806C209.653 135.681 209.191 137.456 208.66 139.131C204.268 152.968 195.084 160 181.258 160C161.282 160 148 144.64 148 121.494C148 97.7069 163.195 81.0669 184.977 81.0669C193.478 81.0669 202.509 83.0936 209.735 86.6136L203.784 111.254L203.041 111.147C203.038 111.122 203.036 111.096 203.034 111.071C202.945 110.086 202.833 109.132 202.698 108.208C200.697 94.5681 193.606 87.5736 181.683 87.5736C169.464 87.5736 161.813 96.8536 161.813 111.467C161.813 131.734 173.501 145.707 190.502 145.707C198.55 145.707 203.877 143.366 207.039 138.379C207.922 136.988 208.636 135.39 209.193 133.58C209.197 133.569 209.2 133.558 209.203 133.547ZM205.246 143.113C204.766 143.515 204.26 143.89 203.726 144.238C200.272 146.49 195.857 147.485 190.502 147.485C181.481 147.485 173.812 143.761 168.427 137.331C163.062 130.925 160.042 121.934 160.042 111.467C160.042 103.865 162.032 97.4505 165.805 92.9026C169.608 88.3187 175.09 85.7958 181.683 85.7958C188.454 85.7958 193.963 87.9364 197.936 92.3246C200.648 95.3199 202.55 99.261 203.702 104.047L207.672 87.61C200.928 84.5846 192.724 82.8447 184.977 82.8447C174.558 82.8447 165.795 86.8129 159.625 93.5623C153.444 100.323 149.771 109.981 149.771 121.494C149.771 132.734 152.994 141.917 158.476 148.262C163.938 154.584 171.753 158.222 181.258 158.222C188.662 158.222 194.505 156.12 198.928 152.085C201.449 149.784 203.565 146.804 205.246 143.113Z" fill="black"/>
<path d="M209.203 133.547L210.054 133.76L210.044 133.807C209.653 135.681 209.191 137.456 208.66 139.131C204.268 152.969 195.084 160 181.258 160C161.282 160 148 144.64 148 121.494C148 110.427 151.289 100.907 157 93.8906L163.221 101.5C162.299 104.442 161.813 107.785 161.813 111.467C161.813 131.734 173.501 145.707 190.502 145.707C198.55 145.707 203.877 143.366 207.039 138.379C207.922 136.988 208.636 135.39 209.193 133.58L209.203 133.547Z" fill="black"/>
<path fill-rule="evenodd" clip-rule="evenodd" d="M241.707 152.322C243.058 156.699 246.603 159.467 252.275 159.467C258.312 159.467 263.158 156.516 265.736 150.728C266.116 149.874 266.447 148.958 266.725 147.981C266.87 147.473 267 146.949 267.116 146.408C267.128 146.352 267.139 146.296 267.151 146.24L266.195 146.133C265.708 147.775 265.02 148.937 264.236 149.734C263.136 150.853 261.848 151.253 260.669 151.253C258.332 151.253 256.525 149.333 256.525 145.6V124.16C256.525 110.507 250.363 101.44 236.23 101.44C225.765 101.44 218.408 106.791 215.274 115.694C214.656 117.449 214.202 119.343 213.92 121.36C213.919 121.369 213.918 121.378 213.917 121.387L214.767 121.6C214.775 121.57 214.784 121.539 214.792 121.509C215.351 119.547 216.052 117.866 216.888 116.443C219.572 111.881 223.653 109.973 228.899 109.973C237.824 109.973 240.799 115.627 240.799 123.84V126.08L231.98 127.893C219.761 130.453 212.11 136.64 212.11 146.133C212.11 153.173 217.211 159.467 226.349 159.467C232.844 159.467 237.503 156.208 239.811 152.115C239.995 151.787 240.164 151.455 240.318 151.118C240.455 150.82 240.58 150.518 240.692 150.214C240.7 150.191 240.709 150.169 240.717 150.147C240.827 149.842 240.926 149.535 241.012 149.227L241.224 150.08C241.227 150.095 241.229 150.111 241.231 150.126C241.334 150.896 241.493 151.629 241.707 152.322ZM242.514 147.927L242.967 149.747L242.98 149.847C243.308 152.342 244.268 154.262 245.732 155.562C247.191 156.858 249.321 157.689 252.275 157.689C255.627 157.689 258.469 156.686 260.67 154.785C261.337 154.209 261.958 153.54 262.522 152.774C261.896 152.953 261.27 153.031 260.669 153.031C258.976 153.031 257.421 152.315 256.33 150.928C255.27 149.578 254.754 147.735 254.754 145.6V124.16C254.754 117.568 253.263 112.357 250.318 108.82C247.42 105.338 242.897 103.218 236.23 103.218C230.334 103.218 225.625 105.016 222.198 108.131C221.379 108.876 220.625 109.703 219.941 110.609C222.522 108.912 225.562 108.195 228.899 108.195C233.76 108.195 237.325 109.758 239.603 112.746C241.808 115.64 242.57 119.573 242.57 123.84V147.804L242.514 147.927ZM230.312 130.105C225.346 131.375 221.402 133.29 218.636 135.745C215.551 138.484 213.881 141.929 213.881 146.133C213.881 149.222 214.997 152.095 217.062 154.19C219.113 156.272 222.203 157.689 226.349 157.689C231.303 157.689 234.987 155.603 237.212 152.807C236.364 153.037 235.465 153.138 234.53 153.138C231.424 153.138 228.958 151.808 227.321 149.612C225.728 147.473 225.003 144.637 225.003 141.653C225.003 138.892 225.417 135.867 227.13 133.271C227.932 132.057 228.98 130.992 230.312 130.105ZM238.86 150.032C239.247 149.721 239.6 149.351 239.92 148.92C240.246 148.482 240.538 147.981 240.799 147.413V128.747L236.655 129.493C228.368 131.2 226.774 136.427 226.774 141.653C226.774 147.093 229.43 151.36 234.53 151.36C236.295 151.36 237.724 150.947 238.86 150.032Z" fill="black"/>
<path fill-rule="evenodd" clip-rule="evenodd" d="M309.385 96.2488C313.386 96.2488 316.327 93.219 316.327 89.2799C316.327 85.3407 313.386 82.311 309.385 82.311C305.355 82.311 302.336 85.3692 302.336 89.2799C302.336 93.1906 305.355 96.2488 309.385 96.2488ZM317.885 101.76L295.89 107.947V108.587C295.952 108.592 296.013 108.598 296.074 108.604C297.011 108.695 297.818 108.84 298.509 109.056C301.237 109.912 302.159 111.898 302.159 116.267V150.187C302.159 153.173 301.118 154.958 299.072 156.089C298.195 156.574 297.133 156.939 295.89 157.227V157.867H324.154V157.227C322.911 156.939 321.849 156.574 320.972 156.089C318.926 154.958 317.885 153.173 317.885 150.187V101.76ZM316.114 104.104L301.066 108.337C301.474 108.626 301.847 108.968 302.181 109.371C303.577 111.061 303.93 113.44 303.93 116.267V150.187C303.93 152.583 303.336 154.568 301.939 156.089H318.105C316.709 154.568 316.114 152.583 316.114 150.187V104.104ZM318.098 89.2799C318.098 94.1865 314.379 98.0265 309.385 98.0265C304.391 98.0265 300.565 94.1865 300.565 89.2799C300.565 84.3732 304.391 80.5332 309.385 80.5332C314.379 80.5332 318.098 84.3732 318.098 89.2799Z" fill="black"/>
<path fill-rule="evenodd" clip-rule="evenodd" d="M345.385 111.073L344.73 110.933V82.3772L329.442 86.8999C329.91 87.2208 330.333 87.6016 330.705 88.0532C332.07 89.709 332.44 91.9499 332.44 94.5067V153.698C337.168 156.071 343.345 157.507 349.021 157.673C347.085 156.991 345.85 155.842 345.118 154.924L344.73 154.437V112.523L344.848 112.215C345.004 111.81 345.183 111.43 345.385 111.073ZM346.501 110.933C346.921 109.986 347.452 109.093 348.079 108.263C348.142 108.179 348.207 108.095 348.272 108.012C351.484 103.943 356.997 101.44 362.652 101.44C373.703 101.44 381.353 111.253 381.353 126.293C381.353 146.773 368.071 159.467 350.114 159.467C343.526 159.467 336.088 157.76 330.669 154.773V94.5067C330.669 90.5764 329.715 88.5624 326.932 87.6424C326.29 87.4299 325.549 87.2758 324.701 87.1699C324.637 87.1619 324.572 87.1541 324.506 87.1467V86.5067L346.501 80V110.933ZM348.272 110.315C348.05 110.504 347.841 110.711 347.646 110.933C347.541 111.054 347.44 111.179 347.343 111.309C347.305 111.361 347.267 111.413 347.231 111.466C346.942 111.882 346.696 112.344 346.501 112.853V153.813C347.351 154.88 349.158 156.48 352.664 156.48C359.677 156.48 364.352 148.373 364.352 132.16C364.352 115.947 359.996 108.693 353.089 108.693C351.693 108.693 350.391 108.999 349.292 109.609C348.929 109.811 348.587 110.046 348.272 110.315ZM351.756 106.998C352.195 106.943 352.64 106.916 353.089 106.916C357.324 106.916 360.69 109.215 362.888 113.538C365.028 117.747 366.123 123.945 366.123 132.16C366.123 140.395 364.943 146.795 362.718 151.203C361.463 153.691 359.842 155.591 357.904 156.789C363.133 155.525 367.661 152.964 371.199 149.319C376.397 143.965 379.582 136.139 379.582 126.293C379.582 119.058 377.741 113.254 374.739 109.305C371.765 105.393 367.601 103.218 362.652 103.218C358.556 103.218 354.626 104.648 351.756 106.998Z" fill="black"/>
<path fill-rule="evenodd" clip-rule="evenodd" d="M288.875 80L266.88 86.5067V87.1467C266.946 87.1541 267.011 87.1619 267.075 87.1699C267.922 87.2755 268.664 87.4291 269.312 87.6407C272.126 88.5599 273.149 90.574 273.149 94.5067V150.187C273.149 153.173 272.108 154.958 270.062 156.089C269.185 156.574 268.124 156.939 266.88 157.227V157.867H295.144V157.227C293.901 156.939 292.84 156.574 291.963 156.089C289.917 154.958 288.875 153.173 288.875 150.187V80ZM287.104 82.3772L271.838 86.8933C272.31 87.2114 272.739 87.5883 273.117 88.0348C274.517 89.687 274.92 91.9287 274.92 94.5067V150.187C274.92 152.583 274.326 154.568 272.93 156.089H289.095C287.699 154.568 287.104 152.583 287.104 150.187V82.3772Z" fill="black"/>
<path fill-rule="evenodd" clip-rule="evenodd" d="M419.552 157.427H441.547V156.787C440.283 156.486 439.197 156.144 438.3 155.649C436.331 154.562 435.278 152.738 435.278 149V101.213L414.345 104.733V105.373C414.382 105.377 414.418 105.381 414.454 105.385C415.504 105.504 416.356 105.721 417.041 106.083C418.933 107.081 419.552 109.183 419.552 113.373V146.333C419.345 146.749 419.108 147.142 418.841 147.509C418.807 147.555 418.773 147.601 418.738 147.647C418.665 147.744 418.588 147.84 418.51 147.933C418.284 148.204 418.041 148.458 417.781 148.695C417.555 148.901 417.316 149.093 417.066 149.27C415.85 150.132 414.355 150.65 412.645 150.707C407.864 150.707 404.995 147.507 404.995 141.32V101.213L383 104.947V105.587C383.037 105.59 383.073 105.593 383.109 105.597C384.315 105.71 385.307 105.901 386.116 106.221C388.46 107.147 389.269 109.153 389.269 113.48V141.747C389.269 153.907 395.326 159.027 404.57 159.027C410.44 159.027 415.053 155.904 417.781 151.599C418.018 151.226 418.24 150.843 418.448 150.453C418.88 149.643 419.25 148.799 419.552 147.933V157.427ZM420.749 147.835L421.323 147.933V155.649H435.48C434.074 154.046 433.507 151.855 433.507 149V103.314L419.397 105.687C419.593 105.903 419.777 106.141 419.946 106.402C421.055 108.109 421.323 110.487 421.323 113.373V146.753L421.136 147.128C421.016 147.37 420.886 147.606 420.749 147.835ZM415.259 152.083C414.458 152.316 413.604 152.453 412.704 152.484L412.675 152.484H412.645C409.837 152.484 407.384 151.527 405.67 149.476C403.996 147.473 403.224 144.661 403.224 141.32V103.317L388.74 105.775C388.936 105.956 389.122 106.152 389.297 106.366C390.693 108.074 391.04 110.514 391.04 113.48V141.747C391.04 147.552 392.485 151.36 394.732 153.717C396.968 156.063 400.265 157.249 404.57 157.249C409.071 157.249 412.764 155.172 415.259 152.083Z" fill="black"/>
<path fill-rule="evenodd" clip-rule="evenodd" d="M463.685 125.107H464.216C464.297 123.473 464.428 121.933 464.606 120.482C464.821 118.733 465.106 117.114 465.456 115.621C467.8 105.615 473.078 101.244 480.083 101.01C480.283 101.003 480.483 101 480.686 101H481.854V116.36H481.323C480.964 116.163 480.555 115.997 480.083 115.861C479.02 115.554 477.638 115.4 475.798 115.4C471.625 115.4 468.305 116.763 466.331 120.971C466.001 121.675 465.708 122.459 465.456 123.329C465.294 123.885 465.149 124.477 465.02 125.107C465.018 125.12 465.015 125.133 465.012 125.146C464.901 125.697 464.803 126.276 464.718 126.884C464.458 128.742 464.322 130.876 464.322 133.32V149.747C464.322 152.898 465.467 154.624 467.876 155.649C469.138 156.185 470.745 156.53 472.716 156.787V157.427H442.327V156.787C443.57 156.499 444.632 156.134 445.509 155.649C447.555 154.518 448.596 152.733 448.596 149.747V116.68C448.596 111.837 447.585 109.498 444.81 108.531C444.149 108.301 443.388 108.148 442.516 108.058C442.454 108.052 442.391 108.046 442.327 108.04V107.4L463.685 101.213V125.107ZM461.914 103.577V126.884H462.93C462.677 128.794 462.551 130.934 462.551 133.32V149.747C462.551 152.19 463.169 154.181 464.66 155.649H448.376C449.773 154.128 450.367 152.143 450.367 149.747V116.68C450.367 113.578 449.982 111.023 448.643 109.189C448.244 108.642 447.784 108.19 447.273 107.818L461.914 103.577ZM466.993 116.865C469.364 114.427 472.472 113.622 475.798 113.622C477.463 113.622 478.878 113.74 480.083 114.024V102.789C476.241 102.931 473.094 104.453 470.727 107.67C469.127 109.844 467.838 112.856 466.993 116.865Z" fill="black"/>
</g>
</svg>
