<svg width="421" height="188" xmlns="http://www.w3.org/2000/svg"><g fill="none" fill-rule="evenodd"><path d="M31 63h123.358a1 1 0 0 1 1 1v64.623a1 1 0 0 1-1 1H31a1 1 0 0 1-1-1V64a1 1 0 0 1 1-1z" fill="#FFF" fill-rule="nonzero"/><g transform="translate(268 63)"><path d="M1 0h123.358a1 1 0 0 1 1 1v64.623a1 1 0 0 1-1 1H1a1 1 0 0 1-1-1V1a1 1 0 0 1 1-1z" fill="#FFF" fill-rule="nonzero"/><path d="M124.358 0a1 1 0 0 1 1 1v64.623a1 1 0 0 1-1 1H1a1 1 0 0 1-1-1V1a1 1 0 0 1 1-1h123.358z" fill="#FFF" fill-rule="nonzero"/><path d="M1 0h123.358c.552 0 1 .645 1 1.441v93.118c0 .796-.448 1.441-1 1.441H1c-.552 0-1-.645-1-1.441V1.441C0 .645.448 0 1 0z" stroke="#6E6F70" stroke-width="1.2" stroke-linecap="round" stroke-linejoin="round"/><path d="M6.255 46h31.49c.14 0 .255.208.255.465v30.07c0 .257-.114.465-.255.465H6.255c-.14 0-.255-.208-.255-.465v-30.07c0-.257.114-.465.255-.465zm0 39h31.49c.14 0 .255.074.255.165v10.67c0 .091-.114.165-.255.165H6.255c-.14 0-.255-.074-.255-.165v-10.67c0-.091.114-.165.255-.165zm40.008-39h32.474c.145 0 .263.208.263.465v30.07c0 .257-.118.465-.263.465H46.263c-.145 0-.263-.208-.263-.465v-30.07c0-.257.118-.465.263-.465zm0 39h32.474c.145 0 .263.074.263.165v10.67c0 .091-.118.165-.263.165H46.263c-.145 0-.263-.074-.263-.165v-10.67c0-.091.118-.165.263-.165zm39.992-39h31.49c.14 0 .255.208.255.465v30.07c0 .257-.114.465-.255.465h-31.49c-.14 0-.255-.208-.255-.465v-30.07c0-.257.114-.465.255-.465zm0 39h31.49c.14 0 .255.074.255.165v10.67c0 .091-.114.165-.255.165h-31.49c-.14 0-.255-.074-.255-.165v-10.67c0-.091.114-.165.255-.165z" stroke="#6E6F70" stroke-width="1.2" stroke-linecap="round" stroke-linejoin="round"/><path fill="#F0F0F2" fill-rule="nonzero" d="M1.0106 11.61873L124.69191 11.61873 124.69191 38.868888 1.0106 38.868888z"/><text fill="#4C4C4C" font-family="Helvetica" font-size="10"><tspan x="32.202" y="29">Product Page</tspan></text><path d="M1 0h123.358a1 1 0 0 1 1 1v10.195a1 1 0 0 1-1 1H1a1 1 0 0 1-1-1V1a1 1 0 0 1 1-1z" fill="#FFF" fill-rule="nonzero"/><path d="M1 0h123.358a1 1 0 0 1 1 1v10.195a1 1 0 0 1-1 1H1a1 1 0 0 1-1-1V1a1 1 0 0 1 1-1z" stroke="#6E6F70" stroke-width="1.2" stroke-linecap="round" stroke-linejoin="round"/><path fill="#6E6F70" fill-rule="nonzero" d="M114.25767 2.91123L122.427605 2.91123 122.427605 4.055021 114.25767 4.055021z"/><path fill="#6E6F70" fill-rule="nonzero" d="M114.25767 5.52563L122.427605 5.52563 122.427605 6.669421 114.25767 6.669421z"/><path fill="#6E6F70" fill-rule="nonzero" d="M114.25767 8.14L122.427605 8.14 122.427605 9.283791 114.25767 9.283791z"/></g><path d="M6.643 1h407.714C417.474 1 420 5.477 420 11v166.207c0 5.523-2.526 10-5.643 10H6.643c-3.117 0-5.643-4.477-5.643-10V11C1 5.477 3.526 1 6.643 1z" stroke="gray" stroke-linecap="round" stroke-linejoin="round"/><text transform="translate(24.807 16.495)" fill="#333" font-family="Helvetica-Bold, Helvetica" font-size="18" font-weight="bold"><tspan x="0" y="18">Filters</tspan></text><text transform="translate(263 16.495)" fill="#333" font-family="Helvetica-Bold, Helvetica" font-size="18" font-weight="bold"><tspan x="0" y="18">Configuration</tspan></text><path d="M31 63h123.358a1 1 0 0 1 1 1v64.623a1 1 0 0 1-1 1H31a1 1 0 0 1-1-1V64a1 1 0 0 1 1-1z" stroke="#6E6F70" stroke-width="1.2" stroke-linecap="round" stroke-linejoin="round"/><path fill="#F0F0F2" fill-rule="nonzero" d="M31.0106 74.61873L154.69191 74.61873 154.69191 101.868888 31.0106 101.868888z"/><text fill="#4C4C4C" font-family="Helvetica" font-size="10"><tspan x="62.2" y="92">Ranges Page</tspan></text><path d="M31 63h123.358a1 1 0 0 1 1 1v10.195a1 1 0 0 1-1 1H31a1 1 0 0 1-1-1V64a1 1 0 0 1 1-1z" fill="#FFF" fill-rule="nonzero"/><path d="M31 63h123.358a1 1 0 0 1 1 1v10.195a1 1 0 0 1-1 1H31a1 1 0 0 1-1-1V64a1 1 0 0 1 1-1z" stroke="#6E6F70" stroke-width="1.2" stroke-linecap="round" stroke-linejoin="round"/><path fill="#6E6F70" fill-rule="nonzero" d="M144.25767 65.91123L152.427605 65.91123 152.427605 67.055021 144.25767 67.055021z"/><path fill="#6E6F70" fill-rule="nonzero" d="M144.25767 68.52563L152.427605 68.52563 152.427605 69.669421 144.25767 69.669421z"/><path fill="#6E6F70" fill-rule="nonzero" d="M144.25767 71.14L152.427605 71.14 152.427605 72.283791 144.25767 72.283791z"/><path d="M247.896 99l-6.337-3.564-.436-.245.49-.872.436.245 8 4.5.775.436-.775.436-8 4.5-.435.245-.49-.872.435-.245 6.337-3.564H156v-1h91.896z" fill="#6E6F70" fill-rule="nonzero"/><path d="M194.5 1v186.207" stroke="#979797" stroke-linecap="square"/></g></svg>